M48
; DRILL file {KiCad 8.0.8} date 2025-02-11T08:07:43+0530
; FORMAT={-:-/ absolute / inch / decimal}
; #@! TF.CreationDate,2025-02-11T08:07:43+05:30
; #@! TF.GenerationSoftware,Kicad,Pcbnew,8.0.8
; #@! TF.FileFunction,Plated,1,2,PTH
FMAT,2
INCH
; #@! TA.AperFunction,Plated,PTH,ViaDrill
T1C0.0118
; #@! TA.AperFunction,Plated,PTH,ViaDrill
T2C0.0157
; #@! TA.AperFunction,Plated,PTH,ComponentDrill
T3C0.0276
; #@! TA.AperFunction,Plated,PTH,ComponentDrill
T4C0.0315
; #@! TA.AperFunction,Plated,PTH,ComponentDrill
T5C0.0350
; #@! TA.AperFunction,Plated,PTH,ComponentDrill
T6C0.0354
; #@! TA.AperFunction,Plated,PTH,ComponentDrill
T7C0.0394
; #@! TA.AperFunction,Plated,PTH,ComponentDrill
T8C0.0433
; #@! TA.AperFunction,Plated,PTH,ComponentDrill
T9C0.0598
%
G90
G05
T1
X5.5455Y-2.3526
T2
X5.7047Y-1.6063
T3
X5.4996Y-2.2047
X5.5685Y-2.501
X5.6091Y-2.3435
X5.7996Y-2.2047
X5.8685Y-2.501
X5.9091Y-2.3435
T4
X5.0886Y-1.2805
X5.187Y-1.2805
X5.2264Y-2.6093
X5.3051Y-1.2805
X5.3248Y-2.6093
X5.4035Y-1.2805
T5
X5.6075Y-1.5561
X5.7059Y-1.5561
X5.8044Y-1.5561
T6
X5.8201Y-1.7819
X5.8201Y-1.8819
T7
X5.1969Y-1.1024
X5.2156Y-2.9931
X5.2969Y-1.1024
X5.3156Y-2.9931
X5.3969Y-1.1024
X5.4156Y-2.9931
X6.1417Y-1.122
X6.1417Y-1.222
X6.1417Y-2.8937
X6.1417Y-2.9937
T8
X5.1362Y-1.5287
X5.1559Y-2.3807
X5.2362Y-1.5287
X5.2559Y-2.3807
X5.3362Y-1.5287
X5.3559Y-2.3807
T9
X5.6398Y-1.1791
X5.6398Y-2.9085
X5.8398Y-1.1791
X5.8398Y-2.9085
T7
G00X5.3543Y-1.8521
M15
G01X5.3543Y-1.9308
M16
G05
G00X5.4331Y-2.0765
M15
G01X5.5118Y-2.0765
M16
G05
G00X5.5906Y-1.8521
M15
G01X5.5906Y-1.9308
M16
G05
M30
