%TF.GenerationSoftware,KiCad,Pcbnew,8.0.8*%
%TF.CreationDate,2025-02-11T08:07:39+05:30*%
%TF.ProjectId,bread_board_PS,62726561-645f-4626-9f61-72645f50532e,v0.1*%
%TF.SameCoordinates,Original*%
%TF.FileFunction,Legend,Top*%
%TF.FilePolarity,Positive*%
%FSLAX46Y46*%
G04 Gerber Fmt 4.6, Leading zero omitted, Abs format (unit mm)*
G04 Created by KiCad (PCBNEW 8.0.8) date 2025-02-11 08:07:39*
%MOMM*%
%LPD*%
G01*
G04 APERTURE LIST*
%ADD10C,0.050000*%
%ADD11C,0.100000*%
%ADD12C,0.150000*%
%ADD13C,0.120000*%
%ADD14C,0.152400*%
G04 APERTURE END LIST*
D10*
X130518608Y-73423971D02*
X130890036Y-73423971D01*
X130890036Y-73423971D02*
X130690036Y-73652542D01*
X130690036Y-73652542D02*
X130775751Y-73652542D01*
X130775751Y-73652542D02*
X130832894Y-73681114D01*
X130832894Y-73681114D02*
X130861465Y-73709685D01*
X130861465Y-73709685D02*
X130890036Y-73766828D01*
X130890036Y-73766828D02*
X130890036Y-73909685D01*
X130890036Y-73909685D02*
X130861465Y-73966828D01*
X130861465Y-73966828D02*
X130832894Y-73995400D01*
X130832894Y-73995400D02*
X130775751Y-74023971D01*
X130775751Y-74023971D02*
X130604322Y-74023971D01*
X130604322Y-74023971D02*
X130547179Y-73995400D01*
X130547179Y-73995400D02*
X130518608Y-73966828D01*
X131147180Y-73966828D02*
X131175751Y-73995400D01*
X131175751Y-73995400D02*
X131147180Y-74023971D01*
X131147180Y-74023971D02*
X131118608Y-73995400D01*
X131118608Y-73995400D02*
X131147180Y-73966828D01*
X131147180Y-73966828D02*
X131147180Y-74023971D01*
X131375751Y-73423971D02*
X131747179Y-73423971D01*
X131747179Y-73423971D02*
X131547179Y-73652542D01*
X131547179Y-73652542D02*
X131632894Y-73652542D01*
X131632894Y-73652542D02*
X131690037Y-73681114D01*
X131690037Y-73681114D02*
X131718608Y-73709685D01*
X131718608Y-73709685D02*
X131747179Y-73766828D01*
X131747179Y-73766828D02*
X131747179Y-73909685D01*
X131747179Y-73909685D02*
X131718608Y-73966828D01*
X131718608Y-73966828D02*
X131690037Y-73995400D01*
X131690037Y-73995400D02*
X131632894Y-74023971D01*
X131632894Y-74023971D02*
X131461465Y-74023971D01*
X131461465Y-74023971D02*
X131404322Y-73995400D01*
X131404322Y-73995400D02*
X131375751Y-73966828D01*
X131918608Y-73423971D02*
X132118608Y-74023971D01*
X132118608Y-74023971D02*
X132318608Y-73423971D01*
D11*
X139542466Y-31100877D02*
X139509133Y-31167544D01*
X139509133Y-31167544D02*
X139509133Y-31267544D01*
X139509133Y-31267544D02*
X139542466Y-31367544D01*
X139542466Y-31367544D02*
X139609133Y-31434211D01*
X139609133Y-31434211D02*
X139675800Y-31467544D01*
X139675800Y-31467544D02*
X139809133Y-31500877D01*
X139809133Y-31500877D02*
X139909133Y-31500877D01*
X139909133Y-31500877D02*
X140042466Y-31467544D01*
X140042466Y-31467544D02*
X140109133Y-31434211D01*
X140109133Y-31434211D02*
X140175800Y-31367544D01*
X140175800Y-31367544D02*
X140209133Y-31267544D01*
X140209133Y-31267544D02*
X140209133Y-31200877D01*
X140209133Y-31200877D02*
X140175800Y-31100877D01*
X140175800Y-31100877D02*
X140142466Y-31067544D01*
X140142466Y-31067544D02*
X139909133Y-31067544D01*
X139909133Y-31067544D02*
X139909133Y-31200877D01*
X140209133Y-30767544D02*
X139509133Y-30767544D01*
X139509133Y-30767544D02*
X140209133Y-30367544D01*
X140209133Y-30367544D02*
X139509133Y-30367544D01*
X140209133Y-30034211D02*
X139509133Y-30034211D01*
X139509133Y-30034211D02*
X139509133Y-29867544D01*
X139509133Y-29867544D02*
X139542466Y-29767544D01*
X139542466Y-29767544D02*
X139609133Y-29700878D01*
X139609133Y-29700878D02*
X139675800Y-29667544D01*
X139675800Y-29667544D02*
X139809133Y-29634211D01*
X139809133Y-29634211D02*
X139909133Y-29634211D01*
X139909133Y-29634211D02*
X140042466Y-29667544D01*
X140042466Y-29667544D02*
X140109133Y-29700878D01*
X140109133Y-29700878D02*
X140175800Y-29767544D01*
X140175800Y-29767544D02*
X140209133Y-29867544D01*
X140209133Y-29867544D02*
X140209133Y-30034211D01*
D10*
X147175751Y-42895400D02*
X147632894Y-42895400D01*
X147404322Y-43123971D02*
X147404322Y-42666828D01*
X147575751Y-50095400D02*
X148032894Y-50095400D01*
X138161465Y-73523971D02*
X137875751Y-73523971D01*
X137875751Y-73523971D02*
X137847179Y-73809685D01*
X137847179Y-73809685D02*
X137875751Y-73781114D01*
X137875751Y-73781114D02*
X137932894Y-73752542D01*
X137932894Y-73752542D02*
X138075751Y-73752542D01*
X138075751Y-73752542D02*
X138132894Y-73781114D01*
X138132894Y-73781114D02*
X138161465Y-73809685D01*
X138161465Y-73809685D02*
X138190036Y-73866828D01*
X138190036Y-73866828D02*
X138190036Y-74009685D01*
X138190036Y-74009685D02*
X138161465Y-74066828D01*
X138161465Y-74066828D02*
X138132894Y-74095400D01*
X138132894Y-74095400D02*
X138075751Y-74123971D01*
X138075751Y-74123971D02*
X137932894Y-74123971D01*
X137932894Y-74123971D02*
X137875751Y-74095400D01*
X137875751Y-74095400D02*
X137847179Y-74066828D01*
X138361465Y-73523971D02*
X138561465Y-74123971D01*
X138561465Y-74123971D02*
X138761465Y-73523971D01*
D11*
X153342466Y-28800877D02*
X153309133Y-28867544D01*
X153309133Y-28867544D02*
X153309133Y-28967544D01*
X153309133Y-28967544D02*
X153342466Y-29067544D01*
X153342466Y-29067544D02*
X153409133Y-29134211D01*
X153409133Y-29134211D02*
X153475800Y-29167544D01*
X153475800Y-29167544D02*
X153609133Y-29200877D01*
X153609133Y-29200877D02*
X153709133Y-29200877D01*
X153709133Y-29200877D02*
X153842466Y-29167544D01*
X153842466Y-29167544D02*
X153909133Y-29134211D01*
X153909133Y-29134211D02*
X153975800Y-29067544D01*
X153975800Y-29067544D02*
X154009133Y-28967544D01*
X154009133Y-28967544D02*
X154009133Y-28900877D01*
X154009133Y-28900877D02*
X153975800Y-28800877D01*
X153975800Y-28800877D02*
X153942466Y-28767544D01*
X153942466Y-28767544D02*
X153709133Y-28767544D01*
X153709133Y-28767544D02*
X153709133Y-28900877D01*
X154009133Y-28467544D02*
X153309133Y-28467544D01*
X153309133Y-28467544D02*
X154009133Y-28067544D01*
X154009133Y-28067544D02*
X153309133Y-28067544D01*
X154009133Y-27734211D02*
X153309133Y-27734211D01*
X153309133Y-27734211D02*
X153309133Y-27567544D01*
X153309133Y-27567544D02*
X153342466Y-27467544D01*
X153342466Y-27467544D02*
X153409133Y-27400878D01*
X153409133Y-27400878D02*
X153475800Y-27367544D01*
X153475800Y-27367544D02*
X153609133Y-27334211D01*
X153609133Y-27334211D02*
X153709133Y-27334211D01*
X153709133Y-27334211D02*
X153842466Y-27367544D01*
X153842466Y-27367544D02*
X153909133Y-27400878D01*
X153909133Y-27400878D02*
X153975800Y-27467544D01*
X153975800Y-27467544D02*
X154009133Y-27567544D01*
X154009133Y-27567544D02*
X154009133Y-27734211D01*
D10*
X131518608Y-29923971D02*
X131890036Y-29923971D01*
X131890036Y-29923971D02*
X131690036Y-30152542D01*
X131690036Y-30152542D02*
X131775751Y-30152542D01*
X131775751Y-30152542D02*
X131832894Y-30181114D01*
X131832894Y-30181114D02*
X131861465Y-30209685D01*
X131861465Y-30209685D02*
X131890036Y-30266828D01*
X131890036Y-30266828D02*
X131890036Y-30409685D01*
X131890036Y-30409685D02*
X131861465Y-30466828D01*
X131861465Y-30466828D02*
X131832894Y-30495400D01*
X131832894Y-30495400D02*
X131775751Y-30523971D01*
X131775751Y-30523971D02*
X131604322Y-30523971D01*
X131604322Y-30523971D02*
X131547179Y-30495400D01*
X131547179Y-30495400D02*
X131518608Y-30466828D01*
X132147180Y-30466828D02*
X132175751Y-30495400D01*
X132175751Y-30495400D02*
X132147180Y-30523971D01*
X132147180Y-30523971D02*
X132118608Y-30495400D01*
X132118608Y-30495400D02*
X132147180Y-30466828D01*
X132147180Y-30466828D02*
X132147180Y-30523971D01*
X132375751Y-29923971D02*
X132747179Y-29923971D01*
X132747179Y-29923971D02*
X132547179Y-30152542D01*
X132547179Y-30152542D02*
X132632894Y-30152542D01*
X132632894Y-30152542D02*
X132690037Y-30181114D01*
X132690037Y-30181114D02*
X132718608Y-30209685D01*
X132718608Y-30209685D02*
X132747179Y-30266828D01*
X132747179Y-30266828D02*
X132747179Y-30409685D01*
X132747179Y-30409685D02*
X132718608Y-30466828D01*
X132718608Y-30466828D02*
X132690037Y-30495400D01*
X132690037Y-30495400D02*
X132632894Y-30523971D01*
X132632894Y-30523971D02*
X132461465Y-30523971D01*
X132461465Y-30523971D02*
X132404322Y-30495400D01*
X132404322Y-30495400D02*
X132375751Y-30466828D01*
X132918608Y-29923971D02*
X133118608Y-30523971D01*
X133118608Y-30523971D02*
X133318608Y-29923971D01*
D11*
X139642466Y-74100877D02*
X139609133Y-74167544D01*
X139609133Y-74167544D02*
X139609133Y-74267544D01*
X139609133Y-74267544D02*
X139642466Y-74367544D01*
X139642466Y-74367544D02*
X139709133Y-74434211D01*
X139709133Y-74434211D02*
X139775800Y-74467544D01*
X139775800Y-74467544D02*
X139909133Y-74500877D01*
X139909133Y-74500877D02*
X140009133Y-74500877D01*
X140009133Y-74500877D02*
X140142466Y-74467544D01*
X140142466Y-74467544D02*
X140209133Y-74434211D01*
X140209133Y-74434211D02*
X140275800Y-74367544D01*
X140275800Y-74367544D02*
X140309133Y-74267544D01*
X140309133Y-74267544D02*
X140309133Y-74200877D01*
X140309133Y-74200877D02*
X140275800Y-74100877D01*
X140275800Y-74100877D02*
X140242466Y-74067544D01*
X140242466Y-74067544D02*
X140009133Y-74067544D01*
X140009133Y-74067544D02*
X140009133Y-74200877D01*
X140309133Y-73767544D02*
X139609133Y-73767544D01*
X139609133Y-73767544D02*
X140309133Y-73367544D01*
X140309133Y-73367544D02*
X139609133Y-73367544D01*
X140309133Y-73034211D02*
X139609133Y-73034211D01*
X139609133Y-73034211D02*
X139609133Y-72867544D01*
X139609133Y-72867544D02*
X139642466Y-72767544D01*
X139642466Y-72767544D02*
X139709133Y-72700878D01*
X139709133Y-72700878D02*
X139775800Y-72667544D01*
X139775800Y-72667544D02*
X139909133Y-72634211D01*
X139909133Y-72634211D02*
X140009133Y-72634211D01*
X140009133Y-72634211D02*
X140142466Y-72667544D01*
X140142466Y-72667544D02*
X140209133Y-72700878D01*
X140209133Y-72700878D02*
X140275800Y-72767544D01*
X140275800Y-72767544D02*
X140309133Y-72867544D01*
X140309133Y-72867544D02*
X140309133Y-73034211D01*
X132599122Y-36542466D02*
X132532455Y-36509133D01*
X132532455Y-36509133D02*
X132432455Y-36509133D01*
X132432455Y-36509133D02*
X132332455Y-36542466D01*
X132332455Y-36542466D02*
X132265789Y-36609133D01*
X132265789Y-36609133D02*
X132232455Y-36675800D01*
X132232455Y-36675800D02*
X132199122Y-36809133D01*
X132199122Y-36809133D02*
X132199122Y-36909133D01*
X132199122Y-36909133D02*
X132232455Y-37042466D01*
X132232455Y-37042466D02*
X132265789Y-37109133D01*
X132265789Y-37109133D02*
X132332455Y-37175800D01*
X132332455Y-37175800D02*
X132432455Y-37209133D01*
X132432455Y-37209133D02*
X132499122Y-37209133D01*
X132499122Y-37209133D02*
X132599122Y-37175800D01*
X132599122Y-37175800D02*
X132632455Y-37142466D01*
X132632455Y-37142466D02*
X132632455Y-36909133D01*
X132632455Y-36909133D02*
X132499122Y-36909133D01*
X132932455Y-37209133D02*
X132932455Y-36509133D01*
X132932455Y-36509133D02*
X133332455Y-37209133D01*
X133332455Y-37209133D02*
X133332455Y-36509133D01*
X133665788Y-37209133D02*
X133665788Y-36509133D01*
X133665788Y-36509133D02*
X133832455Y-36509133D01*
X133832455Y-36509133D02*
X133932455Y-36542466D01*
X133932455Y-36542466D02*
X133999122Y-36609133D01*
X133999122Y-36609133D02*
X134032455Y-36675800D01*
X134032455Y-36675800D02*
X134065788Y-36809133D01*
X134065788Y-36809133D02*
X134065788Y-36909133D01*
X134065788Y-36909133D02*
X134032455Y-37042466D01*
X134032455Y-37042466D02*
X133999122Y-37109133D01*
X133999122Y-37109133D02*
X133932455Y-37175800D01*
X133932455Y-37175800D02*
X133832455Y-37209133D01*
X133832455Y-37209133D02*
X133665788Y-37209133D01*
D10*
X145890036Y-36223971D02*
X146004322Y-36223971D01*
X146004322Y-36223971D02*
X146061465Y-36252542D01*
X146061465Y-36252542D02*
X146118608Y-36309685D01*
X146118608Y-36309685D02*
X146147179Y-36423971D01*
X146147179Y-36423971D02*
X146147179Y-36623971D01*
X146147179Y-36623971D02*
X146118608Y-36738257D01*
X146118608Y-36738257D02*
X146061465Y-36795400D01*
X146061465Y-36795400D02*
X146004322Y-36823971D01*
X146004322Y-36823971D02*
X145890036Y-36823971D01*
X145890036Y-36823971D02*
X145832894Y-36795400D01*
X145832894Y-36795400D02*
X145775751Y-36738257D01*
X145775751Y-36738257D02*
X145747179Y-36623971D01*
X145747179Y-36623971D02*
X145747179Y-36423971D01*
X145747179Y-36423971D02*
X145775751Y-36309685D01*
X145775751Y-36309685D02*
X145832894Y-36252542D01*
X145832894Y-36252542D02*
X145890036Y-36223971D01*
X146604322Y-36509685D02*
X146404322Y-36509685D01*
X146404322Y-36823971D02*
X146404322Y-36223971D01*
X146404322Y-36223971D02*
X146690036Y-36223971D01*
X147118608Y-36509685D02*
X146918608Y-36509685D01*
X146918608Y-36823971D02*
X146918608Y-36223971D01*
X146918608Y-36223971D02*
X147204322Y-36223971D01*
D11*
X131599122Y-33742466D02*
X131532455Y-33709133D01*
X131532455Y-33709133D02*
X131432455Y-33709133D01*
X131432455Y-33709133D02*
X131332455Y-33742466D01*
X131332455Y-33742466D02*
X131265789Y-33809133D01*
X131265789Y-33809133D02*
X131232455Y-33875800D01*
X131232455Y-33875800D02*
X131199122Y-34009133D01*
X131199122Y-34009133D02*
X131199122Y-34109133D01*
X131199122Y-34109133D02*
X131232455Y-34242466D01*
X131232455Y-34242466D02*
X131265789Y-34309133D01*
X131265789Y-34309133D02*
X131332455Y-34375800D01*
X131332455Y-34375800D02*
X131432455Y-34409133D01*
X131432455Y-34409133D02*
X131499122Y-34409133D01*
X131499122Y-34409133D02*
X131599122Y-34375800D01*
X131599122Y-34375800D02*
X131632455Y-34342466D01*
X131632455Y-34342466D02*
X131632455Y-34109133D01*
X131632455Y-34109133D02*
X131499122Y-34109133D01*
X131932455Y-34409133D02*
X131932455Y-33709133D01*
X131932455Y-33709133D02*
X132332455Y-34409133D01*
X132332455Y-34409133D02*
X132332455Y-33709133D01*
X132665788Y-34409133D02*
X132665788Y-33709133D01*
X132665788Y-33709133D02*
X132832455Y-33709133D01*
X132832455Y-33709133D02*
X132932455Y-33742466D01*
X132932455Y-33742466D02*
X132999122Y-33809133D01*
X132999122Y-33809133D02*
X133032455Y-33875800D01*
X133032455Y-33875800D02*
X133065788Y-34009133D01*
X133065788Y-34009133D02*
X133065788Y-34109133D01*
X133065788Y-34109133D02*
X133032455Y-34242466D01*
X133032455Y-34242466D02*
X132999122Y-34309133D01*
X132999122Y-34309133D02*
X132932455Y-34375800D01*
X132932455Y-34375800D02*
X132832455Y-34409133D01*
X132832455Y-34409133D02*
X132665788Y-34409133D01*
D10*
X143490036Y-36223971D02*
X143604322Y-36223971D01*
X143604322Y-36223971D02*
X143661465Y-36252542D01*
X143661465Y-36252542D02*
X143718608Y-36309685D01*
X143718608Y-36309685D02*
X143747179Y-36423971D01*
X143747179Y-36423971D02*
X143747179Y-36623971D01*
X143747179Y-36623971D02*
X143718608Y-36738257D01*
X143718608Y-36738257D02*
X143661465Y-36795400D01*
X143661465Y-36795400D02*
X143604322Y-36823971D01*
X143604322Y-36823971D02*
X143490036Y-36823971D01*
X143490036Y-36823971D02*
X143432894Y-36795400D01*
X143432894Y-36795400D02*
X143375751Y-36738257D01*
X143375751Y-36738257D02*
X143347179Y-36623971D01*
X143347179Y-36623971D02*
X143347179Y-36423971D01*
X143347179Y-36423971D02*
X143375751Y-36309685D01*
X143375751Y-36309685D02*
X143432894Y-36252542D01*
X143432894Y-36252542D02*
X143490036Y-36223971D01*
X144004322Y-36823971D02*
X144004322Y-36223971D01*
X144004322Y-36223971D02*
X144347179Y-36823971D01*
X144347179Y-36823971D02*
X144347179Y-36223971D01*
X137061465Y-29823971D02*
X136775751Y-29823971D01*
X136775751Y-29823971D02*
X136747179Y-30109685D01*
X136747179Y-30109685D02*
X136775751Y-30081114D01*
X136775751Y-30081114D02*
X136832894Y-30052542D01*
X136832894Y-30052542D02*
X136975751Y-30052542D01*
X136975751Y-30052542D02*
X137032894Y-30081114D01*
X137032894Y-30081114D02*
X137061465Y-30109685D01*
X137061465Y-30109685D02*
X137090036Y-30166828D01*
X137090036Y-30166828D02*
X137090036Y-30309685D01*
X137090036Y-30309685D02*
X137061465Y-30366828D01*
X137061465Y-30366828D02*
X137032894Y-30395400D01*
X137032894Y-30395400D02*
X136975751Y-30423971D01*
X136975751Y-30423971D02*
X136832894Y-30423971D01*
X136832894Y-30423971D02*
X136775751Y-30395400D01*
X136775751Y-30395400D02*
X136747179Y-30366828D01*
X137261465Y-29823971D02*
X137461465Y-30423971D01*
X137461465Y-30423971D02*
X137661465Y-29823971D01*
D11*
X136999122Y-33742466D02*
X136932455Y-33709133D01*
X136932455Y-33709133D02*
X136832455Y-33709133D01*
X136832455Y-33709133D02*
X136732455Y-33742466D01*
X136732455Y-33742466D02*
X136665789Y-33809133D01*
X136665789Y-33809133D02*
X136632455Y-33875800D01*
X136632455Y-33875800D02*
X136599122Y-34009133D01*
X136599122Y-34009133D02*
X136599122Y-34109133D01*
X136599122Y-34109133D02*
X136632455Y-34242466D01*
X136632455Y-34242466D02*
X136665789Y-34309133D01*
X136665789Y-34309133D02*
X136732455Y-34375800D01*
X136732455Y-34375800D02*
X136832455Y-34409133D01*
X136832455Y-34409133D02*
X136899122Y-34409133D01*
X136899122Y-34409133D02*
X136999122Y-34375800D01*
X136999122Y-34375800D02*
X137032455Y-34342466D01*
X137032455Y-34342466D02*
X137032455Y-34109133D01*
X137032455Y-34109133D02*
X136899122Y-34109133D01*
X137332455Y-34409133D02*
X137332455Y-33709133D01*
X137332455Y-33709133D02*
X137732455Y-34409133D01*
X137732455Y-34409133D02*
X137732455Y-33709133D01*
X138065788Y-34409133D02*
X138065788Y-33709133D01*
X138065788Y-33709133D02*
X138232455Y-33709133D01*
X138232455Y-33709133D02*
X138332455Y-33742466D01*
X138332455Y-33742466D02*
X138399122Y-33809133D01*
X138399122Y-33809133D02*
X138432455Y-33875800D01*
X138432455Y-33875800D02*
X138465788Y-34009133D01*
X138465788Y-34009133D02*
X138465788Y-34109133D01*
X138465788Y-34109133D02*
X138432455Y-34242466D01*
X138432455Y-34242466D02*
X138399122Y-34309133D01*
X138399122Y-34309133D02*
X138332455Y-34375800D01*
X138332455Y-34375800D02*
X138232455Y-34409133D01*
X138232455Y-34409133D02*
X138065788Y-34409133D01*
X153442466Y-73200877D02*
X153409133Y-73267544D01*
X153409133Y-73267544D02*
X153409133Y-73367544D01*
X153409133Y-73367544D02*
X153442466Y-73467544D01*
X153442466Y-73467544D02*
X153509133Y-73534211D01*
X153509133Y-73534211D02*
X153575800Y-73567544D01*
X153575800Y-73567544D02*
X153709133Y-73600877D01*
X153709133Y-73600877D02*
X153809133Y-73600877D01*
X153809133Y-73600877D02*
X153942466Y-73567544D01*
X153942466Y-73567544D02*
X154009133Y-73534211D01*
X154009133Y-73534211D02*
X154075800Y-73467544D01*
X154075800Y-73467544D02*
X154109133Y-73367544D01*
X154109133Y-73367544D02*
X154109133Y-73300877D01*
X154109133Y-73300877D02*
X154075800Y-73200877D01*
X154075800Y-73200877D02*
X154042466Y-73167544D01*
X154042466Y-73167544D02*
X153809133Y-73167544D01*
X153809133Y-73167544D02*
X153809133Y-73300877D01*
X154109133Y-72867544D02*
X153409133Y-72867544D01*
X153409133Y-72867544D02*
X154109133Y-72467544D01*
X154109133Y-72467544D02*
X153409133Y-72467544D01*
X154109133Y-72134211D02*
X153409133Y-72134211D01*
X153409133Y-72134211D02*
X153409133Y-71967544D01*
X153409133Y-71967544D02*
X153442466Y-71867544D01*
X153442466Y-71867544D02*
X153509133Y-71800878D01*
X153509133Y-71800878D02*
X153575800Y-71767544D01*
X153575800Y-71767544D02*
X153709133Y-71734211D01*
X153709133Y-71734211D02*
X153809133Y-71734211D01*
X153809133Y-71734211D02*
X153942466Y-71767544D01*
X153942466Y-71767544D02*
X154009133Y-71800878D01*
X154009133Y-71800878D02*
X154075800Y-71867544D01*
X154075800Y-71867544D02*
X154109133Y-71967544D01*
X154109133Y-71967544D02*
X154109133Y-72134211D01*
D12*
X145666666Y-34616033D02*
X145666666Y-35116033D01*
X145666666Y-35116033D02*
X145633333Y-35216033D01*
X145633333Y-35216033D02*
X145566666Y-35282700D01*
X145566666Y-35282700D02*
X145466666Y-35316033D01*
X145466666Y-35316033D02*
X145400000Y-35316033D01*
X146033333Y-35316033D02*
X146166666Y-35316033D01*
X146166666Y-35316033D02*
X146233333Y-35282700D01*
X146233333Y-35282700D02*
X146266666Y-35249366D01*
X146266666Y-35249366D02*
X146333333Y-35149366D01*
X146333333Y-35149366D02*
X146366666Y-35016033D01*
X146366666Y-35016033D02*
X146366666Y-34749366D01*
X146366666Y-34749366D02*
X146333333Y-34682700D01*
X146333333Y-34682700D02*
X146299999Y-34649366D01*
X146299999Y-34649366D02*
X146233333Y-34616033D01*
X146233333Y-34616033D02*
X146099999Y-34616033D01*
X146099999Y-34616033D02*
X146033333Y-34649366D01*
X146033333Y-34649366D02*
X145999999Y-34682700D01*
X145999999Y-34682700D02*
X145966666Y-34749366D01*
X145966666Y-34749366D02*
X145966666Y-34916033D01*
X145966666Y-34916033D02*
X145999999Y-34982700D01*
X145999999Y-34982700D02*
X146033333Y-35016033D01*
X146033333Y-35016033D02*
X146099999Y-35049366D01*
X146099999Y-35049366D02*
X146233333Y-35049366D01*
X146233333Y-35049366D02*
X146299999Y-35016033D01*
X146299999Y-35016033D02*
X146333333Y-34982700D01*
X146333333Y-34982700D02*
X146366666Y-34916033D01*
X146983333Y-58216033D02*
X146750000Y-57882700D01*
X146583333Y-58216033D02*
X146583333Y-57516033D01*
X146583333Y-57516033D02*
X146850000Y-57516033D01*
X146850000Y-57516033D02*
X146916667Y-57549366D01*
X146916667Y-57549366D02*
X146950000Y-57582700D01*
X146950000Y-57582700D02*
X146983333Y-57649366D01*
X146983333Y-57649366D02*
X146983333Y-57749366D01*
X146983333Y-57749366D02*
X146950000Y-57816033D01*
X146950000Y-57816033D02*
X146916667Y-57849366D01*
X146916667Y-57849366D02*
X146850000Y-57882700D01*
X146850000Y-57882700D02*
X146583333Y-57882700D01*
X147250000Y-57582700D02*
X147283333Y-57549366D01*
X147283333Y-57549366D02*
X147350000Y-57516033D01*
X147350000Y-57516033D02*
X147516667Y-57516033D01*
X147516667Y-57516033D02*
X147583333Y-57549366D01*
X147583333Y-57549366D02*
X147616667Y-57582700D01*
X147616667Y-57582700D02*
X147650000Y-57649366D01*
X147650000Y-57649366D02*
X147650000Y-57716033D01*
X147650000Y-57716033D02*
X147616667Y-57816033D01*
X147616667Y-57816033D02*
X147216667Y-58216033D01*
X147216667Y-58216033D02*
X147650000Y-58216033D01*
X143400000Y-57516033D02*
X143833333Y-57516033D01*
X143833333Y-57516033D02*
X143600000Y-57782700D01*
X143600000Y-57782700D02*
X143700000Y-57782700D01*
X143700000Y-57782700D02*
X143766666Y-57816033D01*
X143766666Y-57816033D02*
X143800000Y-57849366D01*
X143800000Y-57849366D02*
X143833333Y-57916033D01*
X143833333Y-57916033D02*
X143833333Y-58082700D01*
X143833333Y-58082700D02*
X143800000Y-58149366D01*
X143800000Y-58149366D02*
X143766666Y-58182700D01*
X143766666Y-58182700D02*
X143700000Y-58216033D01*
X143700000Y-58216033D02*
X143500000Y-58216033D01*
X143500000Y-58216033D02*
X143433333Y-58182700D01*
X143433333Y-58182700D02*
X143400000Y-58149366D01*
X144066667Y-57516033D02*
X144500000Y-57516033D01*
X144500000Y-57516033D02*
X144266667Y-57782700D01*
X144266667Y-57782700D02*
X144366667Y-57782700D01*
X144366667Y-57782700D02*
X144433333Y-57816033D01*
X144433333Y-57816033D02*
X144466667Y-57849366D01*
X144466667Y-57849366D02*
X144500000Y-57916033D01*
X144500000Y-57916033D02*
X144500000Y-58082700D01*
X144500000Y-58082700D02*
X144466667Y-58149366D01*
X144466667Y-58149366D02*
X144433333Y-58182700D01*
X144433333Y-58182700D02*
X144366667Y-58216033D01*
X144366667Y-58216033D02*
X144166667Y-58216033D01*
X144166667Y-58216033D02*
X144100000Y-58182700D01*
X144100000Y-58182700D02*
X144066667Y-58149366D01*
X144933334Y-57516033D02*
X145000000Y-57516033D01*
X145000000Y-57516033D02*
X145066667Y-57549366D01*
X145066667Y-57549366D02*
X145100000Y-57582700D01*
X145100000Y-57582700D02*
X145133334Y-57649366D01*
X145133334Y-57649366D02*
X145166667Y-57782700D01*
X145166667Y-57782700D02*
X145166667Y-57949366D01*
X145166667Y-57949366D02*
X145133334Y-58082700D01*
X145133334Y-58082700D02*
X145100000Y-58149366D01*
X145100000Y-58149366D02*
X145066667Y-58182700D01*
X145066667Y-58182700D02*
X145000000Y-58216033D01*
X145000000Y-58216033D02*
X144933334Y-58216033D01*
X144933334Y-58216033D02*
X144866667Y-58182700D01*
X144866667Y-58182700D02*
X144833334Y-58149366D01*
X144833334Y-58149366D02*
X144800000Y-58082700D01*
X144800000Y-58082700D02*
X144766667Y-57949366D01*
X144766667Y-57949366D02*
X144766667Y-57782700D01*
X144766667Y-57782700D02*
X144800000Y-57649366D01*
X144800000Y-57649366D02*
X144833334Y-57582700D01*
X144833334Y-57582700D02*
X144866667Y-57549366D01*
X144866667Y-57549366D02*
X144933334Y-57516033D01*
X153266666Y-30516033D02*
X153266666Y-31016033D01*
X153266666Y-31016033D02*
X153233333Y-31116033D01*
X153233333Y-31116033D02*
X153166666Y-31182700D01*
X153166666Y-31182700D02*
X153066666Y-31216033D01*
X153066666Y-31216033D02*
X153000000Y-31216033D01*
X153566666Y-30582700D02*
X153599999Y-30549366D01*
X153599999Y-30549366D02*
X153666666Y-30516033D01*
X153666666Y-30516033D02*
X153833333Y-30516033D01*
X153833333Y-30516033D02*
X153899999Y-30549366D01*
X153899999Y-30549366D02*
X153933333Y-30582700D01*
X153933333Y-30582700D02*
X153966666Y-30649366D01*
X153966666Y-30649366D02*
X153966666Y-30716033D01*
X153966666Y-30716033D02*
X153933333Y-30816033D01*
X153933333Y-30816033D02*
X153533333Y-31216033D01*
X153533333Y-31216033D02*
X153966666Y-31216033D01*
X132466666Y-42716033D02*
X132466666Y-43282700D01*
X132466666Y-43282700D02*
X132500000Y-43349366D01*
X132500000Y-43349366D02*
X132533333Y-43382700D01*
X132533333Y-43382700D02*
X132600000Y-43416033D01*
X132600000Y-43416033D02*
X132733333Y-43416033D01*
X132733333Y-43416033D02*
X132800000Y-43382700D01*
X132800000Y-43382700D02*
X132833333Y-43349366D01*
X132833333Y-43349366D02*
X132866666Y-43282700D01*
X132866666Y-43282700D02*
X132866666Y-42716033D01*
X133566666Y-43416033D02*
X133166666Y-43416033D01*
X133366666Y-43416033D02*
X133366666Y-42716033D01*
X133366666Y-42716033D02*
X133299999Y-42816033D01*
X133299999Y-42816033D02*
X133233333Y-42882700D01*
X133233333Y-42882700D02*
X133166666Y-42916033D01*
X129983333Y-36016033D02*
X129649999Y-36016033D01*
X129649999Y-36016033D02*
X129649999Y-35316033D01*
X130216666Y-36016033D02*
X130216666Y-35316033D01*
X130216666Y-35316033D02*
X130450000Y-35816033D01*
X130450000Y-35816033D02*
X130683333Y-35316033D01*
X130683333Y-35316033D02*
X130683333Y-36016033D01*
X130950000Y-35316033D02*
X131416666Y-35316033D01*
X131416666Y-35316033D02*
X131116666Y-36016033D01*
X131783333Y-35616033D02*
X131716667Y-35582700D01*
X131716667Y-35582700D02*
X131683333Y-35549366D01*
X131683333Y-35549366D02*
X131650000Y-35482700D01*
X131650000Y-35482700D02*
X131650000Y-35449366D01*
X131650000Y-35449366D02*
X131683333Y-35382700D01*
X131683333Y-35382700D02*
X131716667Y-35349366D01*
X131716667Y-35349366D02*
X131783333Y-35316033D01*
X131783333Y-35316033D02*
X131916667Y-35316033D01*
X131916667Y-35316033D02*
X131983333Y-35349366D01*
X131983333Y-35349366D02*
X132016667Y-35382700D01*
X132016667Y-35382700D02*
X132050000Y-35449366D01*
X132050000Y-35449366D02*
X132050000Y-35482700D01*
X132050000Y-35482700D02*
X132016667Y-35549366D01*
X132016667Y-35549366D02*
X131983333Y-35582700D01*
X131983333Y-35582700D02*
X131916667Y-35616033D01*
X131916667Y-35616033D02*
X131783333Y-35616033D01*
X131783333Y-35616033D02*
X131716667Y-35649366D01*
X131716667Y-35649366D02*
X131683333Y-35682700D01*
X131683333Y-35682700D02*
X131650000Y-35749366D01*
X131650000Y-35749366D02*
X131650000Y-35882700D01*
X131650000Y-35882700D02*
X131683333Y-35949366D01*
X131683333Y-35949366D02*
X131716667Y-35982700D01*
X131716667Y-35982700D02*
X131783333Y-36016033D01*
X131783333Y-36016033D02*
X131916667Y-36016033D01*
X131916667Y-36016033D02*
X131983333Y-35982700D01*
X131983333Y-35982700D02*
X132016667Y-35949366D01*
X132016667Y-35949366D02*
X132050000Y-35882700D01*
X132050000Y-35882700D02*
X132050000Y-35749366D01*
X132050000Y-35749366D02*
X132016667Y-35682700D01*
X132016667Y-35682700D02*
X131983333Y-35649366D01*
X131983333Y-35649366D02*
X131916667Y-35616033D01*
X132483334Y-35316033D02*
X132550000Y-35316033D01*
X132550000Y-35316033D02*
X132616667Y-35349366D01*
X132616667Y-35349366D02*
X132650000Y-35382700D01*
X132650000Y-35382700D02*
X132683334Y-35449366D01*
X132683334Y-35449366D02*
X132716667Y-35582700D01*
X132716667Y-35582700D02*
X132716667Y-35749366D01*
X132716667Y-35749366D02*
X132683334Y-35882700D01*
X132683334Y-35882700D02*
X132650000Y-35949366D01*
X132650000Y-35949366D02*
X132616667Y-35982700D01*
X132616667Y-35982700D02*
X132550000Y-36016033D01*
X132550000Y-36016033D02*
X132483334Y-36016033D01*
X132483334Y-36016033D02*
X132416667Y-35982700D01*
X132416667Y-35982700D02*
X132383334Y-35949366D01*
X132383334Y-35949366D02*
X132350000Y-35882700D01*
X132350000Y-35882700D02*
X132316667Y-35749366D01*
X132316667Y-35749366D02*
X132316667Y-35582700D01*
X132316667Y-35582700D02*
X132350000Y-35449366D01*
X132350000Y-35449366D02*
X132383334Y-35382700D01*
X132383334Y-35382700D02*
X132416667Y-35349366D01*
X132416667Y-35349366D02*
X132483334Y-35316033D01*
X133350001Y-35316033D02*
X133016667Y-35316033D01*
X133016667Y-35316033D02*
X132983334Y-35649366D01*
X132983334Y-35649366D02*
X133016667Y-35616033D01*
X133016667Y-35616033D02*
X133083334Y-35582700D01*
X133083334Y-35582700D02*
X133250001Y-35582700D01*
X133250001Y-35582700D02*
X133316667Y-35616033D01*
X133316667Y-35616033D02*
X133350001Y-35649366D01*
X133350001Y-35649366D02*
X133383334Y-35716033D01*
X133383334Y-35716033D02*
X133383334Y-35882700D01*
X133383334Y-35882700D02*
X133350001Y-35949366D01*
X133350001Y-35949366D02*
X133316667Y-35982700D01*
X133316667Y-35982700D02*
X133250001Y-36016033D01*
X133250001Y-36016033D02*
X133083334Y-36016033D01*
X133083334Y-36016033D02*
X133016667Y-35982700D01*
X133016667Y-35982700D02*
X132983334Y-35949366D01*
X133516668Y-36082700D02*
X134050001Y-36082700D01*
X134116667Y-35316033D02*
X134516667Y-35316033D01*
X134316667Y-36016033D02*
X134316667Y-35316033D01*
X134883334Y-35316033D02*
X135016667Y-35316033D01*
X135016667Y-35316033D02*
X135083334Y-35349366D01*
X135083334Y-35349366D02*
X135150000Y-35416033D01*
X135150000Y-35416033D02*
X135183334Y-35549366D01*
X135183334Y-35549366D02*
X135183334Y-35782700D01*
X135183334Y-35782700D02*
X135150000Y-35916033D01*
X135150000Y-35916033D02*
X135083334Y-35982700D01*
X135083334Y-35982700D02*
X135016667Y-36016033D01*
X135016667Y-36016033D02*
X134883334Y-36016033D01*
X134883334Y-36016033D02*
X134816667Y-35982700D01*
X134816667Y-35982700D02*
X134750000Y-35916033D01*
X134750000Y-35916033D02*
X134716667Y-35782700D01*
X134716667Y-35782700D02*
X134716667Y-35549366D01*
X134716667Y-35549366D02*
X134750000Y-35416033D01*
X134750000Y-35416033D02*
X134816667Y-35349366D01*
X134816667Y-35349366D02*
X134883334Y-35316033D01*
X135450000Y-35382700D02*
X135483333Y-35349366D01*
X135483333Y-35349366D02*
X135550000Y-35316033D01*
X135550000Y-35316033D02*
X135716667Y-35316033D01*
X135716667Y-35316033D02*
X135783333Y-35349366D01*
X135783333Y-35349366D02*
X135816667Y-35382700D01*
X135816667Y-35382700D02*
X135850000Y-35449366D01*
X135850000Y-35449366D02*
X135850000Y-35516033D01*
X135850000Y-35516033D02*
X135816667Y-35616033D01*
X135816667Y-35616033D02*
X135416667Y-36016033D01*
X135416667Y-36016033D02*
X135850000Y-36016033D01*
X136116667Y-35382700D02*
X136150000Y-35349366D01*
X136150000Y-35349366D02*
X136216667Y-35316033D01*
X136216667Y-35316033D02*
X136383334Y-35316033D01*
X136383334Y-35316033D02*
X136450000Y-35349366D01*
X136450000Y-35349366D02*
X136483334Y-35382700D01*
X136483334Y-35382700D02*
X136516667Y-35449366D01*
X136516667Y-35449366D02*
X136516667Y-35516033D01*
X136516667Y-35516033D02*
X136483334Y-35616033D01*
X136483334Y-35616033D02*
X136083334Y-36016033D01*
X136083334Y-36016033D02*
X136516667Y-36016033D01*
X136950001Y-35316033D02*
X137016667Y-35316033D01*
X137016667Y-35316033D02*
X137083334Y-35349366D01*
X137083334Y-35349366D02*
X137116667Y-35382700D01*
X137116667Y-35382700D02*
X137150001Y-35449366D01*
X137150001Y-35449366D02*
X137183334Y-35582700D01*
X137183334Y-35582700D02*
X137183334Y-35749366D01*
X137183334Y-35749366D02*
X137150001Y-35882700D01*
X137150001Y-35882700D02*
X137116667Y-35949366D01*
X137116667Y-35949366D02*
X137083334Y-35982700D01*
X137083334Y-35982700D02*
X137016667Y-36016033D01*
X137016667Y-36016033D02*
X136950001Y-36016033D01*
X136950001Y-36016033D02*
X136883334Y-35982700D01*
X136883334Y-35982700D02*
X136850001Y-35949366D01*
X136850001Y-35949366D02*
X136816667Y-35882700D01*
X136816667Y-35882700D02*
X136783334Y-35749366D01*
X136783334Y-35749366D02*
X136783334Y-35582700D01*
X136783334Y-35582700D02*
X136816667Y-35449366D01*
X136816667Y-35449366D02*
X136850001Y-35382700D01*
X136850001Y-35382700D02*
X136883334Y-35349366D01*
X136883334Y-35349366D02*
X136950001Y-35316033D01*
X153166666Y-74916033D02*
X153166666Y-75416033D01*
X153166666Y-75416033D02*
X153133333Y-75516033D01*
X153133333Y-75516033D02*
X153066666Y-75582700D01*
X153066666Y-75582700D02*
X152966666Y-75616033D01*
X152966666Y-75616033D02*
X152900000Y-75616033D01*
X153866666Y-75616033D02*
X153466666Y-75616033D01*
X153666666Y-75616033D02*
X153666666Y-74916033D01*
X153666666Y-74916033D02*
X153599999Y-75016033D01*
X153599999Y-75016033D02*
X153533333Y-75082700D01*
X153533333Y-75082700D02*
X153466666Y-75116033D01*
X145383333Y-53716033D02*
X145150000Y-53382700D01*
X144983333Y-53716033D02*
X144983333Y-53016033D01*
X144983333Y-53016033D02*
X145250000Y-53016033D01*
X145250000Y-53016033D02*
X145316667Y-53049366D01*
X145316667Y-53049366D02*
X145350000Y-53082700D01*
X145350000Y-53082700D02*
X145383333Y-53149366D01*
X145383333Y-53149366D02*
X145383333Y-53249366D01*
X145383333Y-53249366D02*
X145350000Y-53316033D01*
X145350000Y-53316033D02*
X145316667Y-53349366D01*
X145316667Y-53349366D02*
X145250000Y-53382700D01*
X145250000Y-53382700D02*
X144983333Y-53382700D01*
X146050000Y-53716033D02*
X145650000Y-53716033D01*
X145850000Y-53716033D02*
X145850000Y-53016033D01*
X145850000Y-53016033D02*
X145783333Y-53116033D01*
X145783333Y-53116033D02*
X145716667Y-53182700D01*
X145716667Y-53182700D02*
X145650000Y-53216033D01*
X143800000Y-54116033D02*
X144233333Y-54116033D01*
X144233333Y-54116033D02*
X144000000Y-54382700D01*
X144000000Y-54382700D02*
X144100000Y-54382700D01*
X144100000Y-54382700D02*
X144166666Y-54416033D01*
X144166666Y-54416033D02*
X144200000Y-54449366D01*
X144200000Y-54449366D02*
X144233333Y-54516033D01*
X144233333Y-54516033D02*
X144233333Y-54682700D01*
X144233333Y-54682700D02*
X144200000Y-54749366D01*
X144200000Y-54749366D02*
X144166666Y-54782700D01*
X144166666Y-54782700D02*
X144100000Y-54816033D01*
X144100000Y-54816033D02*
X143900000Y-54816033D01*
X143900000Y-54816033D02*
X143833333Y-54782700D01*
X143833333Y-54782700D02*
X143800000Y-54749366D01*
X144466667Y-54116033D02*
X144900000Y-54116033D01*
X144900000Y-54116033D02*
X144666667Y-54382700D01*
X144666667Y-54382700D02*
X144766667Y-54382700D01*
X144766667Y-54382700D02*
X144833333Y-54416033D01*
X144833333Y-54416033D02*
X144866667Y-54449366D01*
X144866667Y-54449366D02*
X144900000Y-54516033D01*
X144900000Y-54516033D02*
X144900000Y-54682700D01*
X144900000Y-54682700D02*
X144866667Y-54749366D01*
X144866667Y-54749366D02*
X144833333Y-54782700D01*
X144833333Y-54782700D02*
X144766667Y-54816033D01*
X144766667Y-54816033D02*
X144566667Y-54816033D01*
X144566667Y-54816033D02*
X144500000Y-54782700D01*
X144500000Y-54782700D02*
X144466667Y-54749366D01*
X145333334Y-54116033D02*
X145400000Y-54116033D01*
X145400000Y-54116033D02*
X145466667Y-54149366D01*
X145466667Y-54149366D02*
X145500000Y-54182700D01*
X145500000Y-54182700D02*
X145533334Y-54249366D01*
X145533334Y-54249366D02*
X145566667Y-54382700D01*
X145566667Y-54382700D02*
X145566667Y-54549366D01*
X145566667Y-54549366D02*
X145533334Y-54682700D01*
X145533334Y-54682700D02*
X145500000Y-54749366D01*
X145500000Y-54749366D02*
X145466667Y-54782700D01*
X145466667Y-54782700D02*
X145400000Y-54816033D01*
X145400000Y-54816033D02*
X145333334Y-54816033D01*
X145333334Y-54816033D02*
X145266667Y-54782700D01*
X145266667Y-54782700D02*
X145233334Y-54749366D01*
X145233334Y-54749366D02*
X145200000Y-54682700D01*
X145200000Y-54682700D02*
X145166667Y-54549366D01*
X145166667Y-54549366D02*
X145166667Y-54382700D01*
X145166667Y-54382700D02*
X145200000Y-54249366D01*
X145200000Y-54249366D02*
X145233334Y-54182700D01*
X145233334Y-54182700D02*
X145266667Y-54149366D01*
X145266667Y-54149366D02*
X145333334Y-54116033D01*
X129083333Y-29949366D02*
X129050000Y-29982700D01*
X129050000Y-29982700D02*
X128950000Y-30016033D01*
X128950000Y-30016033D02*
X128883333Y-30016033D01*
X128883333Y-30016033D02*
X128783333Y-29982700D01*
X128783333Y-29982700D02*
X128716667Y-29916033D01*
X128716667Y-29916033D02*
X128683333Y-29849366D01*
X128683333Y-29849366D02*
X128650000Y-29716033D01*
X128650000Y-29716033D02*
X128650000Y-29616033D01*
X128650000Y-29616033D02*
X128683333Y-29482700D01*
X128683333Y-29482700D02*
X128716667Y-29416033D01*
X128716667Y-29416033D02*
X128783333Y-29349366D01*
X128783333Y-29349366D02*
X128883333Y-29316033D01*
X128883333Y-29316033D02*
X128950000Y-29316033D01*
X128950000Y-29316033D02*
X129050000Y-29349366D01*
X129050000Y-29349366D02*
X129083333Y-29382700D01*
X129350000Y-29382700D02*
X129383333Y-29349366D01*
X129383333Y-29349366D02*
X129450000Y-29316033D01*
X129450000Y-29316033D02*
X129616667Y-29316033D01*
X129616667Y-29316033D02*
X129683333Y-29349366D01*
X129683333Y-29349366D02*
X129716667Y-29382700D01*
X129716667Y-29382700D02*
X129750000Y-29449366D01*
X129750000Y-29449366D02*
X129750000Y-29516033D01*
X129750000Y-29516033D02*
X129716667Y-29616033D01*
X129716667Y-29616033D02*
X129316667Y-30016033D01*
X129316667Y-30016033D02*
X129750000Y-30016033D01*
X128350000Y-30316033D02*
X128416666Y-30316033D01*
X128416666Y-30316033D02*
X128483333Y-30349366D01*
X128483333Y-30349366D02*
X128516666Y-30382700D01*
X128516666Y-30382700D02*
X128550000Y-30449366D01*
X128550000Y-30449366D02*
X128583333Y-30582700D01*
X128583333Y-30582700D02*
X128583333Y-30749366D01*
X128583333Y-30749366D02*
X128550000Y-30882700D01*
X128550000Y-30882700D02*
X128516666Y-30949366D01*
X128516666Y-30949366D02*
X128483333Y-30982700D01*
X128483333Y-30982700D02*
X128416666Y-31016033D01*
X128416666Y-31016033D02*
X128350000Y-31016033D01*
X128350000Y-31016033D02*
X128283333Y-30982700D01*
X128283333Y-30982700D02*
X128250000Y-30949366D01*
X128250000Y-30949366D02*
X128216666Y-30882700D01*
X128216666Y-30882700D02*
X128183333Y-30749366D01*
X128183333Y-30749366D02*
X128183333Y-30582700D01*
X128183333Y-30582700D02*
X128216666Y-30449366D01*
X128216666Y-30449366D02*
X128250000Y-30382700D01*
X128250000Y-30382700D02*
X128283333Y-30349366D01*
X128283333Y-30349366D02*
X128350000Y-30316033D01*
X128883333Y-30949366D02*
X128916667Y-30982700D01*
X128916667Y-30982700D02*
X128883333Y-31016033D01*
X128883333Y-31016033D02*
X128850000Y-30982700D01*
X128850000Y-30982700D02*
X128883333Y-30949366D01*
X128883333Y-30949366D02*
X128883333Y-31016033D01*
X129583333Y-31016033D02*
X129183333Y-31016033D01*
X129383333Y-31016033D02*
X129383333Y-30316033D01*
X129383333Y-30316033D02*
X129316666Y-30416033D01*
X129316666Y-30416033D02*
X129250000Y-30482700D01*
X129250000Y-30482700D02*
X129183333Y-30516033D01*
X130183333Y-30549366D02*
X130183333Y-31016033D01*
X129883333Y-30549366D02*
X129883333Y-30916033D01*
X129883333Y-30916033D02*
X129916667Y-30982700D01*
X129916667Y-30982700D02*
X129983333Y-31016033D01*
X129983333Y-31016033D02*
X130083333Y-31016033D01*
X130083333Y-31016033D02*
X130150000Y-30982700D01*
X130150000Y-30982700D02*
X130183333Y-30949366D01*
X132966666Y-55816033D02*
X132966666Y-56382700D01*
X132966666Y-56382700D02*
X133000000Y-56449366D01*
X133000000Y-56449366D02*
X133033333Y-56482700D01*
X133033333Y-56482700D02*
X133100000Y-56516033D01*
X133100000Y-56516033D02*
X133233333Y-56516033D01*
X133233333Y-56516033D02*
X133300000Y-56482700D01*
X133300000Y-56482700D02*
X133333333Y-56449366D01*
X133333333Y-56449366D02*
X133366666Y-56382700D01*
X133366666Y-56382700D02*
X133366666Y-55816033D01*
X133666666Y-55882700D02*
X133699999Y-55849366D01*
X133699999Y-55849366D02*
X133766666Y-55816033D01*
X133766666Y-55816033D02*
X133933333Y-55816033D01*
X133933333Y-55816033D02*
X133999999Y-55849366D01*
X133999999Y-55849366D02*
X134033333Y-55882700D01*
X134033333Y-55882700D02*
X134066666Y-55949366D01*
X134066666Y-55949366D02*
X134066666Y-56016033D01*
X134066666Y-56016033D02*
X134033333Y-56116033D01*
X134033333Y-56116033D02*
X133633333Y-56516033D01*
X133633333Y-56516033D02*
X134066666Y-56516033D01*
X129983333Y-63286033D02*
X129649999Y-63286033D01*
X129649999Y-63286033D02*
X129649999Y-62586033D01*
X130216666Y-63286033D02*
X130216666Y-62586033D01*
X130216666Y-62586033D02*
X130450000Y-63086033D01*
X130450000Y-63086033D02*
X130683333Y-62586033D01*
X130683333Y-62586033D02*
X130683333Y-63286033D01*
X130950000Y-62586033D02*
X131383333Y-62586033D01*
X131383333Y-62586033D02*
X131150000Y-62852700D01*
X131150000Y-62852700D02*
X131250000Y-62852700D01*
X131250000Y-62852700D02*
X131316666Y-62886033D01*
X131316666Y-62886033D02*
X131350000Y-62919366D01*
X131350000Y-62919366D02*
X131383333Y-62986033D01*
X131383333Y-62986033D02*
X131383333Y-63152700D01*
X131383333Y-63152700D02*
X131350000Y-63219366D01*
X131350000Y-63219366D02*
X131316666Y-63252700D01*
X131316666Y-63252700D02*
X131250000Y-63286033D01*
X131250000Y-63286033D02*
X131050000Y-63286033D01*
X131050000Y-63286033D02*
X130983333Y-63252700D01*
X130983333Y-63252700D02*
X130950000Y-63219366D01*
X132050000Y-63286033D02*
X131650000Y-63286033D01*
X131850000Y-63286033D02*
X131850000Y-62586033D01*
X131850000Y-62586033D02*
X131783333Y-62686033D01*
X131783333Y-62686033D02*
X131716667Y-62752700D01*
X131716667Y-62752700D02*
X131650000Y-62786033D01*
X132283334Y-62586033D02*
X132750000Y-62586033D01*
X132750000Y-62586033D02*
X132450000Y-63286033D01*
X132850001Y-63352700D02*
X133383334Y-63352700D01*
X133450000Y-62586033D02*
X133850000Y-62586033D01*
X133650000Y-63286033D02*
X133650000Y-62586033D01*
X134216667Y-62586033D02*
X134350000Y-62586033D01*
X134350000Y-62586033D02*
X134416667Y-62619366D01*
X134416667Y-62619366D02*
X134483333Y-62686033D01*
X134483333Y-62686033D02*
X134516667Y-62819366D01*
X134516667Y-62819366D02*
X134516667Y-63052700D01*
X134516667Y-63052700D02*
X134483333Y-63186033D01*
X134483333Y-63186033D02*
X134416667Y-63252700D01*
X134416667Y-63252700D02*
X134350000Y-63286033D01*
X134350000Y-63286033D02*
X134216667Y-63286033D01*
X134216667Y-63286033D02*
X134150000Y-63252700D01*
X134150000Y-63252700D02*
X134083333Y-63186033D01*
X134083333Y-63186033D02*
X134050000Y-63052700D01*
X134050000Y-63052700D02*
X134050000Y-62819366D01*
X134050000Y-62819366D02*
X134083333Y-62686033D01*
X134083333Y-62686033D02*
X134150000Y-62619366D01*
X134150000Y-62619366D02*
X134216667Y-62586033D01*
X134816666Y-63019366D02*
X135350000Y-63019366D01*
X135650000Y-62652700D02*
X135683333Y-62619366D01*
X135683333Y-62619366D02*
X135750000Y-62586033D01*
X135750000Y-62586033D02*
X135916667Y-62586033D01*
X135916667Y-62586033D02*
X135983333Y-62619366D01*
X135983333Y-62619366D02*
X136016667Y-62652700D01*
X136016667Y-62652700D02*
X136050000Y-62719366D01*
X136050000Y-62719366D02*
X136050000Y-62786033D01*
X136050000Y-62786033D02*
X136016667Y-62886033D01*
X136016667Y-62886033D02*
X135616667Y-63286033D01*
X135616667Y-63286033D02*
X136050000Y-63286033D01*
X136316667Y-62652700D02*
X136350000Y-62619366D01*
X136350000Y-62619366D02*
X136416667Y-62586033D01*
X136416667Y-62586033D02*
X136583334Y-62586033D01*
X136583334Y-62586033D02*
X136650000Y-62619366D01*
X136650000Y-62619366D02*
X136683334Y-62652700D01*
X136683334Y-62652700D02*
X136716667Y-62719366D01*
X136716667Y-62719366D02*
X136716667Y-62786033D01*
X136716667Y-62786033D02*
X136683334Y-62886033D01*
X136683334Y-62886033D02*
X136283334Y-63286033D01*
X136283334Y-63286033D02*
X136716667Y-63286033D01*
X137150001Y-62586033D02*
X137216667Y-62586033D01*
X137216667Y-62586033D02*
X137283334Y-62619366D01*
X137283334Y-62619366D02*
X137316667Y-62652700D01*
X137316667Y-62652700D02*
X137350001Y-62719366D01*
X137350001Y-62719366D02*
X137383334Y-62852700D01*
X137383334Y-62852700D02*
X137383334Y-63019366D01*
X137383334Y-63019366D02*
X137350001Y-63152700D01*
X137350001Y-63152700D02*
X137316667Y-63219366D01*
X137316667Y-63219366D02*
X137283334Y-63252700D01*
X137283334Y-63252700D02*
X137216667Y-63286033D01*
X137216667Y-63286033D02*
X137150001Y-63286033D01*
X137150001Y-63286033D02*
X137083334Y-63252700D01*
X137083334Y-63252700D02*
X137050001Y-63219366D01*
X137050001Y-63219366D02*
X137016667Y-63152700D01*
X137016667Y-63152700D02*
X136983334Y-63019366D01*
X136983334Y-63019366D02*
X136983334Y-62852700D01*
X136983334Y-62852700D02*
X137016667Y-62719366D01*
X137016667Y-62719366D02*
X137050001Y-62652700D01*
X137050001Y-62652700D02*
X137083334Y-62619366D01*
X137083334Y-62619366D02*
X137150001Y-62586033D01*
X129286033Y-28233333D02*
X129786033Y-28233333D01*
X129786033Y-28233333D02*
X129886033Y-28266666D01*
X129886033Y-28266666D02*
X129952700Y-28333333D01*
X129952700Y-28333333D02*
X129986033Y-28433333D01*
X129986033Y-28433333D02*
X129986033Y-28500000D01*
X129286033Y-27566667D02*
X129286033Y-27900000D01*
X129286033Y-27900000D02*
X129619366Y-27933333D01*
X129619366Y-27933333D02*
X129586033Y-27900000D01*
X129586033Y-27900000D02*
X129552700Y-27833333D01*
X129552700Y-27833333D02*
X129552700Y-27666667D01*
X129552700Y-27666667D02*
X129586033Y-27600000D01*
X129586033Y-27600000D02*
X129619366Y-27566667D01*
X129619366Y-27566667D02*
X129686033Y-27533333D01*
X129686033Y-27533333D02*
X129852700Y-27533333D01*
X129852700Y-27533333D02*
X129919366Y-27566667D01*
X129919366Y-27566667D02*
X129952700Y-27600000D01*
X129952700Y-27600000D02*
X129986033Y-27666667D01*
X129986033Y-27666667D02*
X129986033Y-27833333D01*
X129986033Y-27833333D02*
X129952700Y-27900000D01*
X129952700Y-27900000D02*
X129919366Y-27933333D01*
X134566666Y-72816033D02*
X134566666Y-73316033D01*
X134566666Y-73316033D02*
X134533333Y-73416033D01*
X134533333Y-73416033D02*
X134466666Y-73482700D01*
X134466666Y-73482700D02*
X134366666Y-73516033D01*
X134366666Y-73516033D02*
X134300000Y-73516033D01*
X135199999Y-73049366D02*
X135199999Y-73516033D01*
X135033333Y-72782700D02*
X134866666Y-73282700D01*
X134866666Y-73282700D02*
X135299999Y-73282700D01*
X145213600Y-40058333D02*
X145246933Y-39958333D01*
X145246933Y-39958333D02*
X145246933Y-39791667D01*
X145246933Y-39791667D02*
X145213600Y-39725000D01*
X145213600Y-39725000D02*
X145180266Y-39691667D01*
X145180266Y-39691667D02*
X145113600Y-39658333D01*
X145113600Y-39658333D02*
X145046933Y-39658333D01*
X145046933Y-39658333D02*
X144980266Y-39691667D01*
X144980266Y-39691667D02*
X144946933Y-39725000D01*
X144946933Y-39725000D02*
X144913600Y-39791667D01*
X144913600Y-39791667D02*
X144880266Y-39925000D01*
X144880266Y-39925000D02*
X144846933Y-39991667D01*
X144846933Y-39991667D02*
X144813600Y-40025000D01*
X144813600Y-40025000D02*
X144746933Y-40058333D01*
X144746933Y-40058333D02*
X144680266Y-40058333D01*
X144680266Y-40058333D02*
X144613600Y-40025000D01*
X144613600Y-40025000D02*
X144580266Y-39991667D01*
X144580266Y-39991667D02*
X144546933Y-39925000D01*
X144546933Y-39925000D02*
X144546933Y-39758333D01*
X144546933Y-39758333D02*
X144580266Y-39658333D01*
X145246933Y-38991666D02*
X145246933Y-39391666D01*
X145246933Y-39191666D02*
X144546933Y-39191666D01*
X144546933Y-39191666D02*
X144646933Y-39258333D01*
X144646933Y-39258333D02*
X144713600Y-39325000D01*
X144713600Y-39325000D02*
X144746933Y-39391666D01*
X138266666Y-36549366D02*
X138500000Y-36549366D01*
X138600000Y-36916033D02*
X138266666Y-36916033D01*
X138266666Y-36916033D02*
X138266666Y-36216033D01*
X138266666Y-36216033D02*
X138600000Y-36216033D01*
X139266666Y-36249366D02*
X139199999Y-36216033D01*
X139199999Y-36216033D02*
X139099999Y-36216033D01*
X139099999Y-36216033D02*
X138999999Y-36249366D01*
X138999999Y-36249366D02*
X138933333Y-36316033D01*
X138933333Y-36316033D02*
X138899999Y-36382700D01*
X138899999Y-36382700D02*
X138866666Y-36516033D01*
X138866666Y-36516033D02*
X138866666Y-36616033D01*
X138866666Y-36616033D02*
X138899999Y-36749366D01*
X138899999Y-36749366D02*
X138933333Y-36816033D01*
X138933333Y-36816033D02*
X138999999Y-36882700D01*
X138999999Y-36882700D02*
X139099999Y-36916033D01*
X139099999Y-36916033D02*
X139166666Y-36916033D01*
X139166666Y-36916033D02*
X139266666Y-36882700D01*
X139266666Y-36882700D02*
X139299999Y-36849366D01*
X139299999Y-36849366D02*
X139299999Y-36616033D01*
X139299999Y-36616033D02*
X139166666Y-36616033D01*
X139966666Y-36916033D02*
X139566666Y-36916033D01*
X139766666Y-36916033D02*
X139766666Y-36216033D01*
X139766666Y-36216033D02*
X139699999Y-36316033D01*
X139699999Y-36316033D02*
X139633333Y-36382700D01*
X139633333Y-36382700D02*
X139566666Y-36416033D01*
X140233333Y-36282700D02*
X140266666Y-36249366D01*
X140266666Y-36249366D02*
X140333333Y-36216033D01*
X140333333Y-36216033D02*
X140500000Y-36216033D01*
X140500000Y-36216033D02*
X140566666Y-36249366D01*
X140566666Y-36249366D02*
X140600000Y-36282700D01*
X140600000Y-36282700D02*
X140633333Y-36349366D01*
X140633333Y-36349366D02*
X140633333Y-36416033D01*
X140633333Y-36416033D02*
X140600000Y-36516033D01*
X140600000Y-36516033D02*
X140200000Y-36916033D01*
X140200000Y-36916033D02*
X140633333Y-36916033D01*
X141300000Y-36916033D02*
X140900000Y-36916033D01*
X141100000Y-36916033D02*
X141100000Y-36216033D01*
X141100000Y-36216033D02*
X141033333Y-36316033D01*
X141033333Y-36316033D02*
X140966667Y-36382700D01*
X140966667Y-36382700D02*
X140900000Y-36416033D01*
X141700000Y-36516033D02*
X141633334Y-36482700D01*
X141633334Y-36482700D02*
X141600000Y-36449366D01*
X141600000Y-36449366D02*
X141566667Y-36382700D01*
X141566667Y-36382700D02*
X141566667Y-36349366D01*
X141566667Y-36349366D02*
X141600000Y-36282700D01*
X141600000Y-36282700D02*
X141633334Y-36249366D01*
X141633334Y-36249366D02*
X141700000Y-36216033D01*
X141700000Y-36216033D02*
X141833334Y-36216033D01*
X141833334Y-36216033D02*
X141900000Y-36249366D01*
X141900000Y-36249366D02*
X141933334Y-36282700D01*
X141933334Y-36282700D02*
X141966667Y-36349366D01*
X141966667Y-36349366D02*
X141966667Y-36382700D01*
X141966667Y-36382700D02*
X141933334Y-36449366D01*
X141933334Y-36449366D02*
X141900000Y-36482700D01*
X141900000Y-36482700D02*
X141833334Y-36516033D01*
X141833334Y-36516033D02*
X141700000Y-36516033D01*
X141700000Y-36516033D02*
X141633334Y-36549366D01*
X141633334Y-36549366D02*
X141600000Y-36582700D01*
X141600000Y-36582700D02*
X141566667Y-36649366D01*
X141566667Y-36649366D02*
X141566667Y-36782700D01*
X141566667Y-36782700D02*
X141600000Y-36849366D01*
X141600000Y-36849366D02*
X141633334Y-36882700D01*
X141633334Y-36882700D02*
X141700000Y-36916033D01*
X141700000Y-36916033D02*
X141833334Y-36916033D01*
X141833334Y-36916033D02*
X141900000Y-36882700D01*
X141900000Y-36882700D02*
X141933334Y-36849366D01*
X141933334Y-36849366D02*
X141966667Y-36782700D01*
X141966667Y-36782700D02*
X141966667Y-36649366D01*
X141966667Y-36649366D02*
X141933334Y-36582700D01*
X141933334Y-36582700D02*
X141900000Y-36549366D01*
X141900000Y-36549366D02*
X141833334Y-36516033D01*
X141885719Y-42026899D02*
X142123814Y-42026899D01*
X142028576Y-42264994D02*
X142123814Y-42026899D01*
X142123814Y-42026899D02*
X142028576Y-41788804D01*
X142314290Y-42169756D02*
X142123814Y-42026899D01*
X142123814Y-42026899D02*
X142314290Y-41884042D01*
X141885719Y-42026899D02*
X142123814Y-42026899D01*
X142028576Y-42264994D02*
X142123814Y-42026899D01*
X142123814Y-42026899D02*
X142028576Y-41788804D01*
X142314290Y-42169756D02*
X142123814Y-42026899D01*
X142123814Y-42026899D02*
X142314290Y-41884042D01*
X138083333Y-31049366D02*
X138050000Y-31082700D01*
X138050000Y-31082700D02*
X137950000Y-31116033D01*
X137950000Y-31116033D02*
X137883333Y-31116033D01*
X137883333Y-31116033D02*
X137783333Y-31082700D01*
X137783333Y-31082700D02*
X137716667Y-31016033D01*
X137716667Y-31016033D02*
X137683333Y-30949366D01*
X137683333Y-30949366D02*
X137650000Y-30816033D01*
X137650000Y-30816033D02*
X137650000Y-30716033D01*
X137650000Y-30716033D02*
X137683333Y-30582700D01*
X137683333Y-30582700D02*
X137716667Y-30516033D01*
X137716667Y-30516033D02*
X137783333Y-30449366D01*
X137783333Y-30449366D02*
X137883333Y-30416033D01*
X137883333Y-30416033D02*
X137950000Y-30416033D01*
X137950000Y-30416033D02*
X138050000Y-30449366D01*
X138050000Y-30449366D02*
X138083333Y-30482700D01*
X138750000Y-31116033D02*
X138350000Y-31116033D01*
X138550000Y-31116033D02*
X138550000Y-30416033D01*
X138550000Y-30416033D02*
X138483333Y-30516033D01*
X138483333Y-30516033D02*
X138416667Y-30582700D01*
X138416667Y-30582700D02*
X138350000Y-30616033D01*
X135350000Y-31016033D02*
X134950000Y-31016033D01*
X135150000Y-31016033D02*
X135150000Y-30316033D01*
X135150000Y-30316033D02*
X135083333Y-30416033D01*
X135083333Y-30416033D02*
X135016667Y-30482700D01*
X135016667Y-30482700D02*
X134950000Y-30516033D01*
X135783334Y-30316033D02*
X135850000Y-30316033D01*
X135850000Y-30316033D02*
X135916667Y-30349366D01*
X135916667Y-30349366D02*
X135950000Y-30382700D01*
X135950000Y-30382700D02*
X135983334Y-30449366D01*
X135983334Y-30449366D02*
X136016667Y-30582700D01*
X136016667Y-30582700D02*
X136016667Y-30749366D01*
X136016667Y-30749366D02*
X135983334Y-30882700D01*
X135983334Y-30882700D02*
X135950000Y-30949366D01*
X135950000Y-30949366D02*
X135916667Y-30982700D01*
X135916667Y-30982700D02*
X135850000Y-31016033D01*
X135850000Y-31016033D02*
X135783334Y-31016033D01*
X135783334Y-31016033D02*
X135716667Y-30982700D01*
X135716667Y-30982700D02*
X135683334Y-30949366D01*
X135683334Y-30949366D02*
X135650000Y-30882700D01*
X135650000Y-30882700D02*
X135616667Y-30749366D01*
X135616667Y-30749366D02*
X135616667Y-30582700D01*
X135616667Y-30582700D02*
X135650000Y-30449366D01*
X135650000Y-30449366D02*
X135683334Y-30382700D01*
X135683334Y-30382700D02*
X135716667Y-30349366D01*
X135716667Y-30349366D02*
X135783334Y-30316033D01*
X136616667Y-30549366D02*
X136616667Y-31016033D01*
X136316667Y-30549366D02*
X136316667Y-30916033D01*
X136316667Y-30916033D02*
X136350001Y-30982700D01*
X136350001Y-30982700D02*
X136416667Y-31016033D01*
X136416667Y-31016033D02*
X136516667Y-31016033D01*
X136516667Y-31016033D02*
X136583334Y-30982700D01*
X136583334Y-30982700D02*
X136616667Y-30949366D01*
X133316666Y-53408533D02*
X133316666Y-53908533D01*
X133316666Y-53908533D02*
X133283333Y-54008533D01*
X133283333Y-54008533D02*
X133216666Y-54075200D01*
X133216666Y-54075200D02*
X133116666Y-54108533D01*
X133116666Y-54108533D02*
X133050000Y-54108533D01*
X133749999Y-53708533D02*
X133683333Y-53675200D01*
X133683333Y-53675200D02*
X133649999Y-53641866D01*
X133649999Y-53641866D02*
X133616666Y-53575200D01*
X133616666Y-53575200D02*
X133616666Y-53541866D01*
X133616666Y-53541866D02*
X133649999Y-53475200D01*
X133649999Y-53475200D02*
X133683333Y-53441866D01*
X133683333Y-53441866D02*
X133749999Y-53408533D01*
X133749999Y-53408533D02*
X133883333Y-53408533D01*
X133883333Y-53408533D02*
X133949999Y-53441866D01*
X133949999Y-53441866D02*
X133983333Y-53475200D01*
X133983333Y-53475200D02*
X134016666Y-53541866D01*
X134016666Y-53541866D02*
X134016666Y-53575200D01*
X134016666Y-53575200D02*
X133983333Y-53641866D01*
X133983333Y-53641866D02*
X133949999Y-53675200D01*
X133949999Y-53675200D02*
X133883333Y-53708533D01*
X133883333Y-53708533D02*
X133749999Y-53708533D01*
X133749999Y-53708533D02*
X133683333Y-53741866D01*
X133683333Y-53741866D02*
X133649999Y-53775200D01*
X133649999Y-53775200D02*
X133616666Y-53841866D01*
X133616666Y-53841866D02*
X133616666Y-53975200D01*
X133616666Y-53975200D02*
X133649999Y-54041866D01*
X133649999Y-54041866D02*
X133683333Y-54075200D01*
X133683333Y-54075200D02*
X133749999Y-54108533D01*
X133749999Y-54108533D02*
X133883333Y-54108533D01*
X133883333Y-54108533D02*
X133949999Y-54075200D01*
X133949999Y-54075200D02*
X133983333Y-54041866D01*
X133983333Y-54041866D02*
X134016666Y-53975200D01*
X134016666Y-53975200D02*
X134016666Y-53841866D01*
X134016666Y-53841866D02*
X133983333Y-53775200D01*
X133983333Y-53775200D02*
X133949999Y-53741866D01*
X133949999Y-53741866D02*
X133883333Y-53708533D01*
X131233335Y-42491866D02*
X131333335Y-42525200D01*
X131333335Y-42525200D02*
X131366668Y-42558533D01*
X131366668Y-42558533D02*
X131400001Y-42625200D01*
X131400001Y-42625200D02*
X131400001Y-42725200D01*
X131400001Y-42725200D02*
X131366668Y-42791866D01*
X131366668Y-42791866D02*
X131333335Y-42825200D01*
X131333335Y-42825200D02*
X131266668Y-42858533D01*
X131266668Y-42858533D02*
X131000001Y-42858533D01*
X131000001Y-42858533D02*
X131000001Y-42158533D01*
X131000001Y-42158533D02*
X131233335Y-42158533D01*
X131233335Y-42158533D02*
X131300001Y-42191866D01*
X131300001Y-42191866D02*
X131333335Y-42225200D01*
X131333335Y-42225200D02*
X131366668Y-42291866D01*
X131366668Y-42291866D02*
X131366668Y-42358533D01*
X131366668Y-42358533D02*
X131333335Y-42425200D01*
X131333335Y-42425200D02*
X131300001Y-42458533D01*
X131300001Y-42458533D02*
X131233335Y-42491866D01*
X131233335Y-42491866D02*
X131000001Y-42491866D01*
X132000001Y-42858533D02*
X132000001Y-42491866D01*
X132000001Y-42491866D02*
X131966668Y-42425200D01*
X131966668Y-42425200D02*
X131900001Y-42391866D01*
X131900001Y-42391866D02*
X131766668Y-42391866D01*
X131766668Y-42391866D02*
X131700001Y-42425200D01*
X132000001Y-42825200D02*
X131933335Y-42858533D01*
X131933335Y-42858533D02*
X131766668Y-42858533D01*
X131766668Y-42858533D02*
X131700001Y-42825200D01*
X131700001Y-42825200D02*
X131666668Y-42758533D01*
X131666668Y-42758533D02*
X131666668Y-42691866D01*
X131666668Y-42691866D02*
X131700001Y-42625200D01*
X131700001Y-42625200D02*
X131766668Y-42591866D01*
X131766668Y-42591866D02*
X131933335Y-42591866D01*
X131933335Y-42591866D02*
X132000001Y-42558533D01*
X132333334Y-42858533D02*
X132333334Y-42391866D01*
X132333334Y-42525200D02*
X132366668Y-42458533D01*
X132366668Y-42458533D02*
X132400001Y-42425200D01*
X132400001Y-42425200D02*
X132466668Y-42391866D01*
X132466668Y-42391866D02*
X132533334Y-42391866D01*
X132766667Y-42858533D02*
X132766667Y-42391866D01*
X132766667Y-42525200D02*
X132800001Y-42458533D01*
X132800001Y-42458533D02*
X132833334Y-42425200D01*
X132833334Y-42425200D02*
X132900001Y-42391866D01*
X132900001Y-42391866D02*
X132966667Y-42391866D01*
X133466667Y-42825200D02*
X133400000Y-42858533D01*
X133400000Y-42858533D02*
X133266667Y-42858533D01*
X133266667Y-42858533D02*
X133200000Y-42825200D01*
X133200000Y-42825200D02*
X133166667Y-42758533D01*
X133166667Y-42758533D02*
X133166667Y-42491866D01*
X133166667Y-42491866D02*
X133200000Y-42425200D01*
X133200000Y-42425200D02*
X133266667Y-42391866D01*
X133266667Y-42391866D02*
X133400000Y-42391866D01*
X133400000Y-42391866D02*
X133466667Y-42425200D01*
X133466667Y-42425200D02*
X133500000Y-42491866D01*
X133500000Y-42491866D02*
X133500000Y-42558533D01*
X133500000Y-42558533D02*
X133166667Y-42625200D01*
X133900000Y-42858533D02*
X133833334Y-42825200D01*
X133833334Y-42825200D02*
X133800000Y-42758533D01*
X133800000Y-42758533D02*
X133800000Y-42158533D01*
X134000001Y-42925200D02*
X134533334Y-42925200D01*
X134900000Y-42158533D02*
X134900000Y-42658533D01*
X134900000Y-42658533D02*
X134866667Y-42758533D01*
X134866667Y-42758533D02*
X134800000Y-42825200D01*
X134800000Y-42825200D02*
X134700000Y-42858533D01*
X134700000Y-42858533D02*
X134633334Y-42858533D01*
X135533333Y-42858533D02*
X135533333Y-42491866D01*
X135533333Y-42491866D02*
X135500000Y-42425200D01*
X135500000Y-42425200D02*
X135433333Y-42391866D01*
X135433333Y-42391866D02*
X135300000Y-42391866D01*
X135300000Y-42391866D02*
X135233333Y-42425200D01*
X135533333Y-42825200D02*
X135466667Y-42858533D01*
X135466667Y-42858533D02*
X135300000Y-42858533D01*
X135300000Y-42858533D02*
X135233333Y-42825200D01*
X135233333Y-42825200D02*
X135200000Y-42758533D01*
X135200000Y-42758533D02*
X135200000Y-42691866D01*
X135200000Y-42691866D02*
X135233333Y-42625200D01*
X135233333Y-42625200D02*
X135300000Y-42591866D01*
X135300000Y-42591866D02*
X135466667Y-42591866D01*
X135466667Y-42591866D02*
X135533333Y-42558533D01*
X136166666Y-42825200D02*
X136100000Y-42858533D01*
X136100000Y-42858533D02*
X135966666Y-42858533D01*
X135966666Y-42858533D02*
X135900000Y-42825200D01*
X135900000Y-42825200D02*
X135866666Y-42791866D01*
X135866666Y-42791866D02*
X135833333Y-42725200D01*
X135833333Y-42725200D02*
X135833333Y-42525200D01*
X135833333Y-42525200D02*
X135866666Y-42458533D01*
X135866666Y-42458533D02*
X135900000Y-42425200D01*
X135900000Y-42425200D02*
X135966666Y-42391866D01*
X135966666Y-42391866D02*
X136100000Y-42391866D01*
X136100000Y-42391866D02*
X136166666Y-42425200D01*
X136466666Y-42858533D02*
X136466666Y-42158533D01*
X136533333Y-42591866D02*
X136733333Y-42858533D01*
X136733333Y-42391866D02*
X136466666Y-42658533D01*
X136866667Y-42925200D02*
X137400000Y-42925200D01*
X137533333Y-42825200D02*
X137633333Y-42858533D01*
X137633333Y-42858533D02*
X137800000Y-42858533D01*
X137800000Y-42858533D02*
X137866666Y-42825200D01*
X137866666Y-42825200D02*
X137900000Y-42791866D01*
X137900000Y-42791866D02*
X137933333Y-42725200D01*
X137933333Y-42725200D02*
X137933333Y-42658533D01*
X137933333Y-42658533D02*
X137900000Y-42591866D01*
X137900000Y-42591866D02*
X137866666Y-42558533D01*
X137866666Y-42558533D02*
X137800000Y-42525200D01*
X137800000Y-42525200D02*
X137666666Y-42491866D01*
X137666666Y-42491866D02*
X137600000Y-42458533D01*
X137600000Y-42458533D02*
X137566666Y-42425200D01*
X137566666Y-42425200D02*
X137533333Y-42358533D01*
X137533333Y-42358533D02*
X137533333Y-42291866D01*
X137533333Y-42291866D02*
X137566666Y-42225200D01*
X137566666Y-42225200D02*
X137600000Y-42191866D01*
X137600000Y-42191866D02*
X137666666Y-42158533D01*
X137666666Y-42158533D02*
X137833333Y-42158533D01*
X137833333Y-42158533D02*
X137933333Y-42191866D01*
X138166667Y-42391866D02*
X138300000Y-42858533D01*
X138300000Y-42858533D02*
X138433333Y-42525200D01*
X138433333Y-42525200D02*
X138566667Y-42858533D01*
X138566667Y-42858533D02*
X138700000Y-42391866D01*
X138966666Y-42858533D02*
X138966666Y-42391866D01*
X138966666Y-42158533D02*
X138933333Y-42191866D01*
X138933333Y-42191866D02*
X138966666Y-42225200D01*
X138966666Y-42225200D02*
X139000000Y-42191866D01*
X139000000Y-42191866D02*
X138966666Y-42158533D01*
X138966666Y-42158533D02*
X138966666Y-42225200D01*
X139199999Y-42391866D02*
X139466666Y-42391866D01*
X139299999Y-42158533D02*
X139299999Y-42758533D01*
X139299999Y-42758533D02*
X139333333Y-42825200D01*
X139333333Y-42825200D02*
X139399999Y-42858533D01*
X139399999Y-42858533D02*
X139466666Y-42858533D01*
X139999999Y-42825200D02*
X139933333Y-42858533D01*
X139933333Y-42858533D02*
X139799999Y-42858533D01*
X139799999Y-42858533D02*
X139733333Y-42825200D01*
X139733333Y-42825200D02*
X139699999Y-42791866D01*
X139699999Y-42791866D02*
X139666666Y-42725200D01*
X139666666Y-42725200D02*
X139666666Y-42525200D01*
X139666666Y-42525200D02*
X139699999Y-42458533D01*
X139699999Y-42458533D02*
X139733333Y-42425200D01*
X139733333Y-42425200D02*
X139799999Y-42391866D01*
X139799999Y-42391866D02*
X139933333Y-42391866D01*
X139933333Y-42391866D02*
X139999999Y-42425200D01*
X140299999Y-42858533D02*
X140299999Y-42158533D01*
X140599999Y-42858533D02*
X140599999Y-42491866D01*
X140599999Y-42491866D02*
X140566666Y-42425200D01*
X140566666Y-42425200D02*
X140499999Y-42391866D01*
X140499999Y-42391866D02*
X140399999Y-42391866D01*
X140399999Y-42391866D02*
X140333333Y-42425200D01*
X140333333Y-42425200D02*
X140299999Y-42458533D01*
X145556666Y-68411033D02*
X145556666Y-68911033D01*
X145556666Y-68911033D02*
X145523333Y-69011033D01*
X145523333Y-69011033D02*
X145456666Y-69077700D01*
X145456666Y-69077700D02*
X145356666Y-69111033D01*
X145356666Y-69111033D02*
X145290000Y-69111033D01*
X145823333Y-68411033D02*
X146289999Y-68411033D01*
X146289999Y-68411033D02*
X145989999Y-69111033D01*
X136083333Y-68649366D02*
X136050000Y-68682700D01*
X136050000Y-68682700D02*
X135950000Y-68716033D01*
X135950000Y-68716033D02*
X135883333Y-68716033D01*
X135883333Y-68716033D02*
X135783333Y-68682700D01*
X135783333Y-68682700D02*
X135716667Y-68616033D01*
X135716667Y-68616033D02*
X135683333Y-68549366D01*
X135683333Y-68549366D02*
X135650000Y-68416033D01*
X135650000Y-68416033D02*
X135650000Y-68316033D01*
X135650000Y-68316033D02*
X135683333Y-68182700D01*
X135683333Y-68182700D02*
X135716667Y-68116033D01*
X135716667Y-68116033D02*
X135783333Y-68049366D01*
X135783333Y-68049366D02*
X135883333Y-68016033D01*
X135883333Y-68016033D02*
X135950000Y-68016033D01*
X135950000Y-68016033D02*
X136050000Y-68049366D01*
X136050000Y-68049366D02*
X136083333Y-68082700D01*
X136316667Y-68016033D02*
X136750000Y-68016033D01*
X136750000Y-68016033D02*
X136516667Y-68282700D01*
X136516667Y-68282700D02*
X136616667Y-68282700D01*
X136616667Y-68282700D02*
X136683333Y-68316033D01*
X136683333Y-68316033D02*
X136716667Y-68349366D01*
X136716667Y-68349366D02*
X136750000Y-68416033D01*
X136750000Y-68416033D02*
X136750000Y-68582700D01*
X136750000Y-68582700D02*
X136716667Y-68649366D01*
X136716667Y-68649366D02*
X136683333Y-68682700D01*
X136683333Y-68682700D02*
X136616667Y-68716033D01*
X136616667Y-68716033D02*
X136416667Y-68716033D01*
X136416667Y-68716033D02*
X136350000Y-68682700D01*
X136350000Y-68682700D02*
X136316667Y-68649366D01*
X133883333Y-68641033D02*
X133483333Y-68641033D01*
X133683333Y-68641033D02*
X133683333Y-67941033D01*
X133683333Y-67941033D02*
X133616666Y-68041033D01*
X133616666Y-68041033D02*
X133550000Y-68107700D01*
X133550000Y-68107700D02*
X133483333Y-68141033D01*
X134483333Y-68174366D02*
X134483333Y-68641033D01*
X134183333Y-68174366D02*
X134183333Y-68541033D01*
X134183333Y-68541033D02*
X134216667Y-68607700D01*
X134216667Y-68607700D02*
X134283333Y-68641033D01*
X134283333Y-68641033D02*
X134383333Y-68641033D01*
X134383333Y-68641033D02*
X134450000Y-68607700D01*
X134450000Y-68607700D02*
X134483333Y-68574366D01*
X146783333Y-62116033D02*
X146550000Y-61782700D01*
X146383333Y-62116033D02*
X146383333Y-61416033D01*
X146383333Y-61416033D02*
X146650000Y-61416033D01*
X146650000Y-61416033D02*
X146716667Y-61449366D01*
X146716667Y-61449366D02*
X146750000Y-61482700D01*
X146750000Y-61482700D02*
X146783333Y-61549366D01*
X146783333Y-61549366D02*
X146783333Y-61649366D01*
X146783333Y-61649366D02*
X146750000Y-61716033D01*
X146750000Y-61716033D02*
X146716667Y-61749366D01*
X146716667Y-61749366D02*
X146650000Y-61782700D01*
X146650000Y-61782700D02*
X146383333Y-61782700D01*
X147016667Y-61416033D02*
X147450000Y-61416033D01*
X147450000Y-61416033D02*
X147216667Y-61682700D01*
X147216667Y-61682700D02*
X147316667Y-61682700D01*
X147316667Y-61682700D02*
X147383333Y-61716033D01*
X147383333Y-61716033D02*
X147416667Y-61749366D01*
X147416667Y-61749366D02*
X147450000Y-61816033D01*
X147450000Y-61816033D02*
X147450000Y-61982700D01*
X147450000Y-61982700D02*
X147416667Y-62049366D01*
X147416667Y-62049366D02*
X147383333Y-62082700D01*
X147383333Y-62082700D02*
X147316667Y-62116033D01*
X147316667Y-62116033D02*
X147116667Y-62116033D01*
X147116667Y-62116033D02*
X147050000Y-62082700D01*
X147050000Y-62082700D02*
X147016667Y-62049366D01*
X143800000Y-61416033D02*
X143466666Y-61416033D01*
X143466666Y-61416033D02*
X143433333Y-61749366D01*
X143433333Y-61749366D02*
X143466666Y-61716033D01*
X143466666Y-61716033D02*
X143533333Y-61682700D01*
X143533333Y-61682700D02*
X143700000Y-61682700D01*
X143700000Y-61682700D02*
X143766666Y-61716033D01*
X143766666Y-61716033D02*
X143800000Y-61749366D01*
X143800000Y-61749366D02*
X143833333Y-61816033D01*
X143833333Y-61816033D02*
X143833333Y-61982700D01*
X143833333Y-61982700D02*
X143800000Y-62049366D01*
X143800000Y-62049366D02*
X143766666Y-62082700D01*
X143766666Y-62082700D02*
X143700000Y-62116033D01*
X143700000Y-62116033D02*
X143533333Y-62116033D01*
X143533333Y-62116033D02*
X143466666Y-62082700D01*
X143466666Y-62082700D02*
X143433333Y-62049366D01*
X144433333Y-61416033D02*
X144300000Y-61416033D01*
X144300000Y-61416033D02*
X144233333Y-61449366D01*
X144233333Y-61449366D02*
X144200000Y-61482700D01*
X144200000Y-61482700D02*
X144133333Y-61582700D01*
X144133333Y-61582700D02*
X144100000Y-61716033D01*
X144100000Y-61716033D02*
X144100000Y-61982700D01*
X144100000Y-61982700D02*
X144133333Y-62049366D01*
X144133333Y-62049366D02*
X144166667Y-62082700D01*
X144166667Y-62082700D02*
X144233333Y-62116033D01*
X144233333Y-62116033D02*
X144366667Y-62116033D01*
X144366667Y-62116033D02*
X144433333Y-62082700D01*
X144433333Y-62082700D02*
X144466667Y-62049366D01*
X144466667Y-62049366D02*
X144500000Y-61982700D01*
X144500000Y-61982700D02*
X144500000Y-61816033D01*
X144500000Y-61816033D02*
X144466667Y-61749366D01*
X144466667Y-61749366D02*
X144433333Y-61716033D01*
X144433333Y-61716033D02*
X144366667Y-61682700D01*
X144366667Y-61682700D02*
X144233333Y-61682700D01*
X144233333Y-61682700D02*
X144166667Y-61716033D01*
X144166667Y-61716033D02*
X144133333Y-61749366D01*
X144133333Y-61749366D02*
X144100000Y-61816033D01*
X144933334Y-61416033D02*
X145000000Y-61416033D01*
X145000000Y-61416033D02*
X145066667Y-61449366D01*
X145066667Y-61449366D02*
X145100000Y-61482700D01*
X145100000Y-61482700D02*
X145133334Y-61549366D01*
X145133334Y-61549366D02*
X145166667Y-61682700D01*
X145166667Y-61682700D02*
X145166667Y-61849366D01*
X145166667Y-61849366D02*
X145133334Y-61982700D01*
X145133334Y-61982700D02*
X145100000Y-62049366D01*
X145100000Y-62049366D02*
X145066667Y-62082700D01*
X145066667Y-62082700D02*
X145000000Y-62116033D01*
X145000000Y-62116033D02*
X144933334Y-62116033D01*
X144933334Y-62116033D02*
X144866667Y-62082700D01*
X144866667Y-62082700D02*
X144833334Y-62049366D01*
X144833334Y-62049366D02*
X144800000Y-61982700D01*
X144800000Y-61982700D02*
X144766667Y-61849366D01*
X144766667Y-61849366D02*
X144766667Y-61682700D01*
X144766667Y-61682700D02*
X144800000Y-61549366D01*
X144800000Y-61549366D02*
X144833334Y-61482700D01*
X144833334Y-61482700D02*
X144866667Y-61449366D01*
X144866667Y-61449366D02*
X144933334Y-61416033D01*
X144186033Y-47046666D02*
X143486033Y-47046666D01*
X143486033Y-47046666D02*
X143486033Y-46879999D01*
X143486033Y-46879999D02*
X143519366Y-46779999D01*
X143519366Y-46779999D02*
X143586033Y-46713333D01*
X143586033Y-46713333D02*
X143652700Y-46679999D01*
X143652700Y-46679999D02*
X143786033Y-46646666D01*
X143786033Y-46646666D02*
X143886033Y-46646666D01*
X143886033Y-46646666D02*
X144019366Y-46679999D01*
X144019366Y-46679999D02*
X144086033Y-46713333D01*
X144086033Y-46713333D02*
X144152700Y-46779999D01*
X144152700Y-46779999D02*
X144186033Y-46879999D01*
X144186033Y-46879999D02*
X144186033Y-47046666D01*
X144186033Y-45979999D02*
X144186033Y-46379999D01*
X144186033Y-46179999D02*
X143486033Y-46179999D01*
X143486033Y-46179999D02*
X143586033Y-46246666D01*
X143586033Y-46246666D02*
X143652700Y-46313333D01*
X143652700Y-46313333D02*
X143686033Y-46379999D01*
X150716033Y-51250000D02*
X150716033Y-51583333D01*
X150716033Y-51583333D02*
X150016033Y-51583333D01*
X150349366Y-51016666D02*
X150349366Y-50783333D01*
X150716033Y-50683333D02*
X150716033Y-51016666D01*
X150716033Y-51016666D02*
X150016033Y-51016666D01*
X150016033Y-51016666D02*
X150016033Y-50683333D01*
X150716033Y-50383333D02*
X150016033Y-50383333D01*
X150016033Y-50383333D02*
X150016033Y-50216666D01*
X150016033Y-50216666D02*
X150049366Y-50116666D01*
X150049366Y-50116666D02*
X150116033Y-50050000D01*
X150116033Y-50050000D02*
X150182700Y-50016666D01*
X150182700Y-50016666D02*
X150316033Y-49983333D01*
X150316033Y-49983333D02*
X150416033Y-49983333D01*
X150416033Y-49983333D02*
X150549366Y-50016666D01*
X150549366Y-50016666D02*
X150616033Y-50050000D01*
X150616033Y-50050000D02*
X150682700Y-50116666D01*
X150682700Y-50116666D02*
X150716033Y-50216666D01*
X150716033Y-50216666D02*
X150716033Y-50383333D01*
D13*
%TO.C,J9*%
X140710000Y-26140000D02*
X140710000Y-33760000D01*
X140710000Y-33760000D02*
X150870000Y-33760000D01*
X150870000Y-26140000D02*
X140710000Y-26140000D01*
X150870000Y-32490000D02*
X140710000Y-32490000D01*
X150870000Y-33760000D02*
X150870000Y-26140000D01*
%TO.C,R2*%
X143410000Y-59525000D02*
X144360000Y-59525000D01*
X144360000Y-58605000D02*
X144360000Y-60445000D01*
X144360000Y-60445000D02*
X148200000Y-60445000D01*
X148200000Y-58605000D02*
X144360000Y-58605000D01*
X148200000Y-60445000D02*
X148200000Y-58605000D01*
X149150000Y-59525000D02*
X148200000Y-59525000D01*
%TO.C,J2*%
X154670000Y-27170000D02*
X156000000Y-27170000D01*
X154670000Y-28500000D02*
X154670000Y-27170000D01*
X154670000Y-29770000D02*
X154670000Y-32370000D01*
X154670000Y-29770000D02*
X157330000Y-29770000D01*
X154670000Y-32370000D02*
X157330000Y-32370000D01*
X157330000Y-29770000D02*
X157330000Y-32370000D01*
%TO.C,U1*%
X127880000Y-42100000D02*
X127880000Y-37459000D01*
X131149000Y-42100000D02*
X131149000Y-40590000D01*
X134850000Y-42100000D02*
X134850000Y-40590000D01*
X138120000Y-37459000D02*
X127880000Y-37459000D01*
X138120000Y-40590000D02*
X127880000Y-40590000D01*
X138120000Y-42100000D02*
X127880000Y-42100000D01*
X138120000Y-42100000D02*
X138120000Y-37459000D01*
%TO.C,J1*%
X154670000Y-72170000D02*
X156000000Y-72170000D01*
X154670000Y-73500000D02*
X154670000Y-72170000D01*
X154670000Y-74770000D02*
X154670000Y-77370000D01*
X154670000Y-74770000D02*
X157330000Y-74770000D01*
X154670000Y-77370000D02*
X157330000Y-77370000D01*
X157330000Y-74770000D02*
X157330000Y-77370000D01*
%TO.C,R1*%
X140630000Y-56000000D02*
X141580000Y-56000000D01*
X141580000Y-55080000D02*
X141580000Y-56920000D01*
X141580000Y-56920000D02*
X145420000Y-56920000D01*
X145420000Y-55080000D02*
X141580000Y-55080000D01*
X145420000Y-56920000D02*
X145420000Y-55080000D01*
X146370000Y-56000000D02*
X145420000Y-56000000D01*
%TO.C,C2*%
X129871000Y-31605000D02*
X131129000Y-31605000D01*
X129871000Y-33445000D02*
X131129000Y-33445000D01*
%TO.C,U2*%
X128380000Y-57200000D02*
X128380000Y-61841000D01*
X128380000Y-57200000D02*
X138620000Y-57200000D01*
X128380000Y-58710000D02*
X138620000Y-58710000D01*
X128380000Y-61841000D02*
X138620000Y-61841000D01*
X131650000Y-57200000D02*
X131650000Y-58710000D01*
X135351000Y-57200000D02*
X135351000Y-58710000D01*
X138620000Y-57200000D02*
X138620000Y-61841000D01*
%TO.C,J5*%
X130670000Y-29330000D02*
X130670000Y-28000000D01*
X132000000Y-29330000D02*
X130670000Y-29330000D01*
X133270000Y-26670000D02*
X138410000Y-26670000D01*
X133270000Y-29330000D02*
X133270000Y-26670000D01*
X133270000Y-29330000D02*
X138410000Y-29330000D01*
X138410000Y-29330000D02*
X138410000Y-26670000D01*
%TO.C,J4*%
X131145000Y-77355000D02*
X131145000Y-76025000D01*
X132475000Y-77355000D02*
X131145000Y-77355000D01*
X133745000Y-74695000D02*
X138885000Y-74695000D01*
X133745000Y-77355000D02*
X133745000Y-74695000D01*
X133745000Y-77355000D02*
X138885000Y-77355000D01*
X138885000Y-77355000D02*
X138885000Y-74695000D01*
D14*
%TO.C,S1*%
X139000000Y-37404100D02*
X139000000Y-41645900D01*
X139000000Y-41645900D02*
X150861800Y-41645900D01*
X150861800Y-37404100D02*
X139000000Y-37404100D01*
X150861800Y-41645900D02*
X150861800Y-37404100D01*
D13*
%TO.C,C1*%
X135371000Y-31605000D02*
X136629000Y-31605000D01*
X135371000Y-33445000D02*
X136629000Y-33445000D01*
%TO.C,J8*%
X128200000Y-43442500D02*
X142900000Y-43442500D01*
X128200000Y-52642500D02*
X128200000Y-43442500D01*
X137000000Y-52642500D02*
X128200000Y-52642500D01*
X142050000Y-43242500D02*
X143100000Y-43242500D01*
X142900000Y-43442500D02*
X142900000Y-46042500D01*
X142900000Y-49942500D02*
X142900000Y-52642500D01*
X142900000Y-52642500D02*
X141000000Y-52642500D01*
X143100000Y-44292500D02*
X143100000Y-43242500D01*
%TO.C,J7*%
X140710000Y-70065000D02*
X140710000Y-77685000D01*
X140710000Y-77685000D02*
X150870000Y-77685000D01*
X150870000Y-70065000D02*
X140710000Y-70065000D01*
X150870000Y-76415000D02*
X140710000Y-76415000D01*
X150870000Y-77685000D02*
X150870000Y-70065000D01*
%TO.C,C3*%
X133371000Y-65355000D02*
X134629000Y-65355000D01*
X133371000Y-67195000D02*
X134629000Y-67195000D01*
%TO.C,R3*%
X142380000Y-63525000D02*
X143330000Y-63525000D01*
X143330000Y-62605000D02*
X143330000Y-64445000D01*
X143330000Y-64445000D02*
X147170000Y-64445000D01*
X147170000Y-62605000D02*
X143330000Y-62605000D01*
X147170000Y-64445000D02*
X147170000Y-62605000D01*
X148120000Y-63525000D02*
X147170000Y-63525000D01*
%TO.C,D1*%
X146285000Y-49090000D02*
X149375000Y-49090000D01*
X146285170Y-49090000D02*
G75*
G02*
X147829952Y-43540000I1544830J2560000D01*
G01*
X147830048Y-43540000D02*
G75*
G02*
X149374830Y-49090000I-48J-2990000D01*
G01*
X150330000Y-46530000D02*
G75*
G02*
X145330000Y-46530000I-2500000J0D01*
G01*
X145330000Y-46530000D02*
G75*
G02*
X150330000Y-46530000I2500000J0D01*
G01*
%TD*%
M02*
